<?xml version="1.0" standalone="no"?>
<!DOCTYPE svg PUBLIC "-//W3C//DTD SVG 20010904//EN"
 "http://www.w3.org/TR/2001/REC-SVG-20010904/DTD/svg10.dtd">
<svg version="1.0" xmlns="http://www.w3.org/2000/svg"
 width="800.000000pt" height="800.000000pt" viewBox="0 0 800.000000 800.000000"
 preserveAspectRatio="xMidYMid meet">
<metadata>
Created by potrace 1.11, written by Peter Selinger 2001-2013
</metadata>
<g transform="translate(0.000000,800.000000) scale(0.100000,-0.100000)"
fill="#000000" stroke="none">
<path d="M0 4000 l0 -4000 4000 0 4000 0 0 4000 0 4000 -4000 0 -4000 0 0
-4000z m3860 3832 c0 -12 4 -11 20 6 21 22 45 27 74 16 25 -10 -37 -84 -64
-77 -11 3 -20 9 -20 13 0 4 -16 8 -35 7 -29 -1 -35 -5 -35 -23 0 -12 -4 -24
-8 -26 -4 -1 -18 -20 -31 -40 -12 -21 -27 -38 -32 -38 -5 0 -9 -5 -9 -12 0 -6
-11 -26 -25 -44 -14 -18 -25 -40 -25 -48 0 -9 -6 -13 -14 -10 -16 6 -96 -72
-150 -148 -34 -48 -42 -54 -67 -50 -17 3 -29 0 -29 -7 0 -6 9 -11 20 -11 11 0
20 -2 20 -5 0 -9 -25 -47 -46 -72 -12 -13 -35 -48 -50 -78 -16 -30 -32 -55
-36 -55 -5 0 -8 -9 -8 -20 0 -11 -4 -20 -10 -20 -5 0 -10 -7 -10 -16 0 -9 -7
-14 -17 -12 -10 2 -23 -2 -28 -10 -6 -7 -33 -15 -60 -18 -101 -10 -110 -15
-60 -33 28 -10 33 -16 31 -39 -1 -15 4 -35 12 -44 12 -15 11 -19 -7 -39 -11
-12 -18 -27 -14 -32 3 -6 12 -2 19 8 8 10 17 15 21 11 5 -4 1 -13 -8 -19 -9
-7 -19 -22 -23 -35 -4 -12 -12 -19 -18 -16 -6 4 -5 9 3 15 7 4 10 11 6 16 -12
11 -27 -19 -21 -40 3 -10 2 -17 -3 -16 -25 4 -43 -3 -43 -17 0 -9 -6 -22 -14
-28 -16 -12 -80 -129 -91 -165 -5 -17 -4 -22 5 -16 10 6 12 1 8 -19 -3 -14 -4
-26 -2 -26 1 0 21 34 44 77 26 48 37 79 30 83 -12 7 15 70 31 70 15 0 10 -28
-7 -38 -9 -5 -15 -15 -12 -22 2 -8 13 1 26 22 13 21 20 43 16 54 -4 13 -3 15
3 6 9 -12 57 52 168 228 26 41 67 100 91 130 24 30 43 59 44 64 0 4 19 31 42
58 23 27 49 63 57 79 33 61 114 169 122 163 5 -3 9 1 9 9 0 14 85 103 114 119
9 5 16 16 16 23 0 8 5 15 10 15 6 0 10 -4 10 -9 0 -5 6 -9 13 -8 6 0 41 -1 76
-1 55 -2 62 -4 51 -17 -7 -8 -17 -12 -23 -8 -6 3 -7 1 -3 -5 7 -12 -1 -24 -46
-73 -16 -15 -28 -31 -28 -35 0 -10 -88 -140 -105 -154 -8 -7 -15 -19 -15 -26
0 -8 -4 -14 -10 -14 -5 0 -10 -7 -10 -15 0 -8 -5 -15 -11 -15 -20 0 -66 46
-63 63 4 29 -23 19 -34 -12 -8 -21 -7 -31 1 -34 6 -2 8 -11 3 -22 -6 -16 -9
-17 -17 -5 -6 10 -7 5 -3 -17 5 -25 3 -33 -8 -33 -8 0 -19 -14 -24 -32 -8 -26
-15 -32 -43 -36 -44 -5 -81 -19 -81 -32 0 -13 2 -13 36 5 35 18 91 20 97 3 9
-27 -58 -108 -89 -108 -15 0 -24 8 -28 24 -6 24 -31 40 -47 30 -5 -3 -3 -15 6
-27 19 -27 19 -56 1 -63 -8 -3 -13 -17 -12 -34 1 -15 -1 -36 -4 -46 -6 -16 -8
-16 -29 5 -13 13 -25 20 -28 17 -4 -3 6 -17 20 -30 27 -25 35 -60 17 -71 -6
-4 -22 -27 -35 -53 -31 -59 -46 -81 -66 -103 -9 -9 -36 -48 -58 -85 -23 -38
-46 -76 -51 -84 -30 -48 -110 -193 -110 -200 0 -4 -7 -13 -16 -21 -14 -11 -14
-13 1 -21 8 -5 12 -15 8 -21 -21 -37 42 34 69 77 17 28 38 57 46 63 9 7 17 25
18 40 2 15 12 34 22 43 27 22 63 76 55 84 -3 3 -2 6 4 6 5 0 29 27 53 60 24
33 47 60 51 60 4 0 17 21 29 48 12 26 31 59 42 74 10 15 21 36 23 47 2 10 20
41 39 69 20 27 36 56 36 65 0 8 12 30 26 47 20 24 29 28 35 18 6 -9 9 -6 9 11
0 27 69 125 100 141 16 8 20 8 20 -4 0 -8 -4 -16 -9 -18 -5 -1 -11 -21 -13
-43 -2 -22 -8 -46 -12 -53 -4 -7 -5 -19 -3 -26 3 -8 -2 -22 -11 -32 -9 -11
-17 -23 -17 -29 -1 -27 -18 -75 -26 -75 -6 0 -7 -4 -4 -10 3 -5 2 -10 -4 -10
-5 0 -13 -9 -16 -21 -4 -11 -9 -18 -12 -15 -9 8 -46 -32 -39 -43 4 -5 -2 -9
-13 -8 -16 1 -18 4 -9 22 10 18 10 19 -5 6 -10 -7 -17 -20 -17 -27 0 -8 -5
-14 -12 -14 -6 0 -8 -3 -5 -7 4 -3 1 -13 -6 -22 -14 -17 -117 -178 -117 -183
0 -2 31 -2 68 0 68 3 69 3 81 -25 13 -32 1 -83 -19 -83 -6 0 -8 -4 -5 -10 4
-6 -3 -9 -16 -7 -12 1 -24 -3 -26 -10 -3 -7 3 -10 15 -6 15 3 22 -3 31 -28 14
-41 14 -92 0 -106 -15 -15 9 -52 30 -47 25 6 41 -9 34 -34 -5 -21 -10 -23 -42
-17 -20 4 -179 9 -353 12 l-318 5 0 24 c0 13 -4 24 -9 24 -4 0 -11 19 -14 41
-6 47 -22 70 -24 37 -1 -13 -6 -32 -11 -43 -31 -67 -32 -73 -9 -80 18 -5 14
-9 -27 -20 -27 -8 -52 -18 -55 -22 -3 -5 -23 -19 -43 -32 l-38 -23 -10 27 c-5
14 -10 31 -10 37 0 9 -214 5 -315 -7 -16 -2 -55 -6 -85 -9 -151 -16 -237 -31
-253 -45 -10 -8 -27 -32 -39 -53 -22 -38 -28 -41 -120 -54 -35 -4 -54 -2 -76
12 -29 17 -31 16 -71 -4 l-41 -22 0 23 c0 13 5 28 12 35 16 16 -2 16 -53 0
-37 -11 -45 -25 -41 -69 1 -3 -23 -14 -51 -24 -29 -10 -56 -22 -61 -26 -6 -5
-18 -9 -28 -9 -10 0 -30 -7 -44 -16 -30 -20 -47 -8 -42 27 2 19 20 32 75 59
l72 35 2 60 c2 115 10 191 29 285 11 52 21 106 23 120 2 14 9 38 15 53 7 15
15 40 18 55 4 15 11 32 16 38 4 6 6 19 2 28 -3 9 -2 16 3 16 8 0 15 11 69 120
15 30 34 69 42 85 8 17 30 53 48 82 19 28 34 59 34 67 0 9 7 16 15 16 8 0 15
7 15 16 0 20 175 194 195 194 8 0 20 8 27 18 7 10 28 24 46 31 17 7 32 17 32
22 0 5 7 9 15 9 8 0 29 8 47 18 18 10 42 21 53 24 126 36 206 63 249 82 76 35
151 62 246 91 47 14 108 35 135 46 84 35 188 66 235 72 25 4 74 16 110 27 104
34 399 107 480 119 41 7 104 17 140 24 72 15 90 12 90 -11z m136 -9 c-10 -10
-19 5 -10 18 6 11 8 11 12 0 2 -7 1 -15 -2 -18z m103 -38 c-21 -34 -39 -53
-39 -39 0 13 42 74 50 74 5 0 0 -16 -11 -35z m-39 4 c-7 -11 -14 -19 -16 -16
-7 7 7 37 17 37 6 0 5 -9 -1 -21z m80 6 c-16 -19 -5 -34 12 -17 17 17 33 15
18 -3 -15 -18 -7 -19 21 -4 20 10 20 10 3 -15 -15 -24 -15 -26 0 -20 29 11 17
-11 -35 -67 -30 -31 -44 -42 -34 -26 18 32 15 46 -5 22 -21 -25 -32 -17 -14
10 11 17 13 25 4 25 -7 0 -10 7 -7 14 4 10 1 13 -9 9 -21 -8 -7 25 24 60 27
28 43 38 22 12z m-200 -35 c0 -5 -4 -10 -10 -10 -5 0 -10 5 -10 10 0 6 5 10
10 10 6 0 10 -4 10 -10z m548 -79 c18 -13 30 -26 27 -30 -3 -3 -9 -1 -13 4 -4
6 -18 16 -32 23 -14 7 -36 22 -50 33 l-25 20 30 -13 c17 -7 45 -23 63 -37z
m-718 -36 c0 -8 -2 -15 -4 -15 -2 0 -6 7 -10 15 -3 8 -1 15 4 15 6 0 10 -7 10
-15z m408 -5 c-7 -11 -17 -20 -22 -20 -5 0 -1 9 9 20 10 11 20 20 22 20 2 0
-2 -9 -9 -20z m392 0 c0 -5 8 -10 18 -11 10 0 12 -3 5 -6 -7 -2 -23 3 -35 11
-18 13 -19 16 -5 16 9 0 17 -4 17 -10z m-580 -14 c0 -3 -4 -8 -10 -11 -5 -3
-10 -1 -10 4 0 6 5 11 10 11 6 0 10 -2 10 -4z m640 -71 c7 -9 8 -15 2 -15 -5
0 -12 7 -16 15 -3 8 -4 15 -2 15 2 0 9 -7 16 -15z m-490 -25 c10 -6 11 -10 3
-10 -7 0 -13 -6 -13 -14 0 -8 -6 -17 -12 -20 -10 -3 -8 -9 5 -19 17 -14 23
-37 9 -37 -4 0 -15 9 -25 20 -21 25 -72 27 -86 3 -6 -10 -11 -13 -11 -6 0 14
88 93 104 93 6 0 18 -5 26 -10z m717 -36 c3 -8 9 -11 14 -8 5 3 9 0 9 -5 0
-17 -24 -13 -48 9 -12 11 -26 20 -32 20 -5 0 -10 6 -10 14 0 12 5 12 31 -1 17
-8 33 -21 36 -29z m240 -110 c-3 -3 -12 -4 -19 -1 -8 3 -5 6 6 6 11 1 17 -2
13 -5z m-1137 -31 c0 -5 -22 -33 -48 -64 -26 -31 -56 -69 -66 -83 -11 -15 -27
-36 -35 -46 -9 -10 -21 -27 -27 -37 -7 -10 -15 -15 -19 -11 -4 4 11 29 34 56
23 26 41 52 41 57 0 4 7 13 15 19 9 7 11 16 6 24 -5 9 -25 -12 -64 -70 -32
-46 -57 -89 -57 -95 0 -6 -7 -13 -15 -17 -8 -3 -15 -1 -15 3 0 5 -3 18 -7 28
-3 10 -2 14 2 10 5 -4 15 20 22 54 13 67 38 113 54 103 6 -3 22 5 36 17 29 26
24 14 -20 -46 -16 -22 -23 -41 -17 -43 14 -5 44 32 74 91 13 26 27 44 30 39 2
-4 1 -14 -3 -21 -5 -7 -6 -21 -4 -32 5 -17 6 -17 23 -1 9 9 25 29 35 45 17 27
25 33 25 20z m1200 -3 c8 -5 11 -10 5 -10 -5 0 -17 5 -25 10 -8 5 -10 10 -5
10 6 0 17 -5 25 -10z m-895 -50 c3 -5 2 -10 -3 -10 -6 0 -13 -11 -16 -25 -4
-14 -11 -23 -16 -20 -5 3 -12 -5 -15 -17 -3 -13 -19 -32 -35 -43 -27 -18 -35
-33 -31 -57 0 -5 -5 -8 -12 -8 -20 0 -54 -41 -62 -72 -4 -16 -12 -25 -17 -22
-6 4 -7 -2 -3 -16 6 -19 4 -22 -9 -17 -10 4 -14 3 -11 -2 3 -5 1 -13 -5 -16
-6 -4 -8 -15 -5 -26 5 -14 2 -17 -9 -13 -11 4 -19 -2 -26 -20 -5 -14 -14 -26
-19 -26 -5 0 -12 -9 -16 -19 -3 -12 -12 -18 -20 -15 -10 4 -12 0 -8 -15 3 -12
1 -21 -6 -21 -5 0 -8 -6 -5 -14 3 -8 1 -17 -5 -21 -6 -3 -11 1 -11 10 0 13 -3
13 -21 -3 -18 -18 -26 -45 -28 -94 -1 -10 -5 -18 -11 -18 -13 0 -45 -32 -46
-45 -3 -33 -18 -75 -28 -75 -6 0 -5 -6 4 -13 8 -7 17 -21 18 -32 3 -15 -5 -11
-33 18 -33 34 -42 38 -77 35 -38 -4 -39 -3 -32 27 8 42 44 115 56 115 6 0 2
-12 -7 -27 -17 -26 -16 -26 17 5 19 18 37 30 41 27 4 -3 5 -2 2 2 -7 9 25 43
42 43 7 0 13 4 13 10 0 5 9 20 20 32 61 69 106 123 179 218 105 135 234 289
243 290 4 0 10 -4 13 -10z m1005 0 c0 -5 -7 -7 -15 -4 -8 4 -15 8 -15 10 0 2
7 4 15 4 8 0 15 -4 15 -10z m60 -34 c0 -2 -9 -6 -20 -9 -11 -3 -18 -1 -14 4 5
9 34 13 34 5z m35 -16 c3 -5 -1 -10 -9 -10 -9 0 -16 5 -16 10 0 6 4 10 9 10 6
0 13 -4 16 -10z m35 -18 c0 -4 23 -16 50 -26 28 -10 50 -22 50 -27 0 -5 3 -8
8 -7 12 3 52 -13 52 -22 0 -4 8 -7 18 -6 12 1 18 -8 20 -27 2 -15 8 -25 13
-22 5 4 12 -1 15 -9 3 -9 13 -16 21 -16 8 0 11 -4 8 -10 -3 -5 1 -10 9 -10 26
0 18 -17 -23 -49 -47 -37 -63 -40 -31 -6 27 29 21 32 -15 9 -32 -21 -32 -10 2
35 l28 36 -49 -40 c-41 -33 -47 -36 -36 -15 7 13 22 32 34 42 12 9 17 17 12
18 -5 0 -18 -7 -28 -17 -22 -19 -36 -10 -18 12 10 12 10 15 -3 15 -8 0 -17 -6
-20 -12 -2 -7 -8 -9 -13 -5 -5 5 -1 13 9 18 22 13 23 41 0 32 -12 -5 -15 -2
-10 10 9 25 -6 21 -33 -8 -13 -14 -30 -25 -38 -25 -9 0 1 15 24 36 21 19 31
33 22 30 -12 -3 -18 0 -18 9 0 19 -24 19 -40 0 -7 -8 -18 -15 -24 -14 -7 0 -6
3 2 6 7 2 17 14 23 25 10 19 9 20 -10 15 -12 -3 -19 -1 -15 4 3 5 -5 9 -18 9
-18 0 -20 2 -8 10 18 12 30 13 30 2z m50 -78 c0 -8 -5 -12 -10 -9 -6 4 -8 11
-5 16 9 14 15 11 15 -7z m-991 -109 c0 -29 -1 -29 -10 -7 -5 13 -11 38 -14 55
l-5 32 15 -25 c8 -14 14 -38 14 -55z m-571 46 c11 -6 10 -10 -4 -15 -9 -3 -14
-9 -11 -12 3 -4 -1 -13 -9 -21 -12 -12 -18 -13 -29 -3 -16 13 -20 42 -8 53 9
10 45 8 61 -2z m1945 -127 c115 -115 163 -207 235 -449 45 -152 76 -347 87
-545 4 -63 8 -131 11 -150 8 -72 13 -644 5 -620 -4 14 -19 45 -32 70 -22 43
-24 44 -27 18 -5 -38 -30 -44 -44 -10 -11 27 -12 27 -16 4 -4 -29 -25 -24 -27
6 -1 17 4 22 21 22 17 0 25 7 30 27 4 14 3 32 -2 38 -43 57 -46 65 -35 79 9
11 9 15 -1 18 -10 4 -10 8 -2 19 16 21 26 51 14 44 -6 -3 -10 -13 -10 -21 0
-8 -7 -17 -15 -20 -8 -4 -15 -13 -15 -21 0 -8 5 -11 10 -8 6 3 10 2 10 -4 0
-5 -4 -13 -10 -16 -5 -3 -10 -2 -10 3 0 5 -12 14 -26 21 -23 10 -24 14 -13 28
12 15 12 16 -3 10 -10 -3 -18 -4 -18 -1 0 2 8 17 18 31 9 15 11 24 5 20 -17
-11 -16 5 2 29 17 22 20 38 5 29 -16 -10 -12 3 16 53 14 26 19 38 10 28 -25
-31 -32 -9 -8 24 25 34 29 48 7 30 -21 -17 -19 -1 5 37 15 25 16 31 4 26 -13
-5 -13 -1 -2 23 6 16 17 35 22 43 8 11 8 13 -1 7 -17 -9 -17 6 -1 22 10 10 10
15 -1 21 -11 7 -11 12 2 31 8 12 13 28 11 34 -3 7 0 24 5 39 7 18 7 27 -1 29
-7 3 -8 10 -1 23 17 36 1 325 -18 325 -5 0 -6 13 -3 30 4 16 2 36 -4 42 -5 7
-12 29 -15 48 -10 65 -34 167 -41 179 -4 6 -9 22 -12 36 -2 13 -18 46 -34 72
-17 27 -38 62 -48 78 -9 17 -45 58 -80 93 -34 35 -54 59 -45 53 10 -5 49 -40
86 -77z m-133 51 c0 -8 8 -15 18 -15 13 0 9 -7 -15 -31 -18 -16 -33 -34 -33
-38 0 -5 -7 -11 -15 -15 -12 -4 -13 -2 -2 17 6 12 19 30 27 40 12 15 12 20 1
26 -8 5 -10 14 -7 20 10 16 26 14 26 -4z m-1220 -32 c0 -22 -2 -25 -10 -13
-13 20 -13 40 0 40 6 0 10 -12 10 -27z m1190 8 c0 -5 -7 -17 -16 -25 -16 -17
-28 -21 -21 -8 2 4 7 15 10 25 7 18 27 24 27 8z m82 -33 c0 -13 1 -29 1 -35
-1 -7 3 -13 7 -13 5 0 10 6 13 13 2 6 7 9 11 5 4 -3 0 -18 -9 -31 -19 -29 -51
-46 -41 -22 7 18 2 19 -26 4 -21 -12 -21 -11 0 16 12 15 22 32 22 36 0 16 -19
9 -24 -9 -3 -9 -15 -23 -27 -30 -25 -16 -21 -7 24 51 33 42 46 47 49 15z
m-1530 -70 c-6 -25 -39 -64 -47 -57 -4 5 42 79 49 79 2 0 2 -10 -2 -22z m1604
-10 c4 -13 9 -25 13 -28 3 -3 12 -16 19 -29 12 -21 10 -27 -25 -70 -21 -25
-47 -59 -57 -74 -9 -16 -20 -26 -23 -23 -5 5 38 70 57 86 3 3 14 18 24 34 15
23 16 33 7 53 l-12 25 -34 -37 c-43 -45 -46 -36 -5 15 16 20 26 40 23 44 -7 7
-73 -61 -73 -75 0 -4 -7 -10 -16 -13 -18 -7 14 43 55 86 32 33 38 34 47 6z
m-32 -123 c-32 -38 -40 -42 -47 -29 -8 14 -11 14 -18 3 -5 -8 -9 -9 -9 -3 0 5
7 19 15 30 14 18 14 18 15 -5 0 -20 2 -21 15 -11 8 7 15 19 15 26 0 8 5 14 10
14 6 0 16 12 23 27 9 20 13 23 15 10 2 -9 -14 -37 -34 -62z m-1246 -65 c0 -31
-1 -32 -7 -10 -4 14 -10 48 -13 75 l-6 50 13 -40 c8 -22 13 -56 13 -75z m1362
53 c0 -7 4 -13 9 -13 11 0 22 -61 26 -139 2 -31 8 -85 15 -121 18 -99 21 -140
9 -161 -5 -10 -6 -19 -1 -19 10 0 8 -67 -2 -77 -3 -3 -6 -13 -6 -22 0 -9 -17
-26 -38 -39 l-37 -23 30 28 c17 16 31 38 32 50 1 20 -1 19 -27 -10 -16 -18
-30 -27 -30 -21 0 6 7 17 15 24 15 12 21 40 9 40 -4 0 -13 -8 -20 -17 -7 -10
-13 -13 -13 -8 0 6 13 26 29 45 22 26 30 30 30 18 0 -10 -5 -18 -11 -18 -5 0
-7 -5 -4 -10 12 -19 24 0 23 34 -1 18 2 38 6 44 18 29 -5 8 -33 -30 -37 -50
-42 -33 -6 20 14 20 25 43 25 52 0 8 -8 2 -19 -15 -10 -16 -31 -41 -46 -55
-25 -22 -23 -18 11 35 22 33 42 62 47 63 4 2 7 11 7 19 0 9 -19 -8 -41 -36
-23 -29 -44 -49 -47 -46 -3 3 4 15 14 28 27 30 56 77 48 77 -4 0 -20 -15 -36
-32 -36 -40 -28 -12 15 50 16 24 27 45 24 48 -2 3 -12 -8 -22 -23 -20 -32 -65
-79 -65 -69 0 3 14 25 30 48 17 23 28 43 25 46 -8 8 -45 -29 -45 -45 0 -7 -7
-13 -16 -13 -9 0 -12 5 -8 13 31 49 70 105 86 120 10 10 18 22 18 27 0 21 -16
8 -40 -31 -27 -45 -70 -92 -78 -85 -2 3 11 23 29 45 18 23 29 44 25 48 -4 4
-12 0 -17 -10 -6 -9 -15 -17 -21 -17 -6 0 -3 10 6 23 8 12 23 37 32 55 9 17
21 32 26 32 5 0 6 5 3 10 -3 6 -1 10 6 10 7 0 9 3 6 6 -9 10 -36 -15 -64 -59
-25 -39 -70 -90 -59 -66 3 8 9 22 12 32 4 9 10 17 14 17 4 0 24 24 45 54 26
39 35 60 30 75 -9 31 5 48 22 26 7 -11 13 -25 13 -32z m-1982 9 c6 -18 -15
-14 -22 4 -4 10 -1 14 6 12 6 -2 14 -10 16 -16z m1915 -49 c-9 -15 -27 -37
-39 -49 -11 -11 -26 -29 -32 -39 -6 -11 -14 -17 -17 -13 -4 4 -1 13 6 21 8 8
32 39 54 70 40 55 62 64 28 10z m-141 -15 c-7 -7 -12 -8 -12 -2 0 14 12 26 19
19 2 -3 -1 -11 -7 -17z m-1620 -5 c-5 -10 -10 -34 -10 -53 0 -19 -6 -36 -11
-38 -6 -2 -9 -8 -5 -13 3 -5 -2 -9 -11 -9 -12 0 -15 -6 -10 -20 5 -15 2 -20
-13 -20 -14 0 -19 -6 -17 -24 2 -18 -1 -23 -12 -19 -19 8 -14 -27 7 -44 12 -9
12 -14 3 -22 -7 -6 -11 -8 -8 -4 3 3 -4 12 -15 20 -11 8 -20 21 -20 29 0 8 -9
14 -20 14 -29 0 -25 24 16 78 19 26 51 68 71 95 19 26 41 47 49 47 11 0 12 -5
6 -17z m246 -98 c-3 -3 -9 2 -12 12 -6 14 -5 15 5 6 7 -7 10 -15 7 -18z m1343
-108 c-10 -9 -11 -8 -5 6 3 10 9 15 12 12 3 -3 0 -11 -7 -18z m-1305 -13 c-4
-11 1 -22 13 -30 11 -8 24 -33 30 -56 5 -24 22 -88 36 -143 26 -103 29 -146 9
-152 -11 -4 -20 20 -30 77 -11 58 -37 156 -45 166 -5 6 -6 13 -3 17 9 9 -6 66
-22 82 -12 11 -12 19 -4 35 13 24 25 27 16 4z m304 -24 c0 -5 -4 -10 -10 -10
-5 0 -10 5 -10 10 0 6 5 10 10 10 6 0 10 -4 10 -10z m-35 -10 c3 -5 1 -10 -4
-10 -6 0 -11 5 -11 10 0 6 2 10 4 10 3 0 8 -4 11 -10z m-1505 -55 c0 -8 -4
-15 -10 -15 -5 0 -10 7 -10 15 0 8 5 15 10 15 6 0 10 -7 10 -15z m1864 -24
c26 -28 16 -47 -12 -23 -22 19 -29 42 -14 42 5 0 17 -9 26 -19z m658 -63 c-7
-7 -12 -8 -12 -2 0 14 12 26 19 19 2 -3 -1 -11 -7 -17z m61 -30 c-21 -29 -59
-75 -85 -103 -27 -27 -48 -55 -48 -62 0 -6 -3 -13 -8 -15 -4 -1 -25 -25 -46
-53 -22 -27 -47 -57 -55 -65 -29 -27 -83 -101 -79 -106 5 -5 61 54 118 125 19
24 58 70 85 101 95 109 115 133 115 140 0 4 12 17 27 31 25 23 25 22 -5 -21
-17 -25 -45 -61 -62 -80 -17 -19 -41 -48 -53 -63 -12 -15 -32 -40 -44 -55 -13
-15 -23 -30 -23 -34 0 -4 -25 -30 -55 -59 -30 -28 -55 -56 -55 -60 0 -5 -9
-18 -20 -29 -11 -11 -20 -25 -20 -30 0 -6 15 6 33 26 17 21 43 49 57 64 14 14
48 52 75 84 28 32 57 66 65 75 8 9 35 43 60 75 68 89 80 102 80 91 0 -6 -29
-47 -65 -92 -35 -45 -61 -84 -57 -87 7 -4 51 45 96 109 8 11 17 17 20 14 3 -3
-44 -68 -105 -143 -60 -76 -107 -141 -104 -144 3 -3 7 -3 9 -1 1 2 40 49 84
104 128 157 144 176 150 170 3 -3 -6 -18 -19 -33 -14 -15 -33 -38 -41 -52 -9
-14 -42 -55 -75 -91 -108 -124 -126 -149 -108 -149 7 0 64 64 90 101 19 27 35
37 35 22 0 -5 -21 -30 -46 -58 -135 -149 -141 -154 -163 -148 -28 7 -27 12 20
58 45 44 65 75 50 75 -5 0 -21 -15 -35 -32 -41 -52 -81 -89 -84 -79 -2 5 14
27 35 48 32 34 104 114 175 196 10 11 15 24 12 29 -3 5 -15 -4 -27 -19 -12
-15 -55 -66 -97 -113 -41 -47 -84 -97 -96 -112 -15 -20 -27 -25 -43 -21 -15 4
-20 11 -16 21 4 12 2 12 -8 3 -11 -8 -26 -7 -63 6 -60 20 -60 19 -44 38 7 9
10 18 7 22 -4 3 -15 -5 -26 -18 -27 -33 -26 -15 1 24 35 50 148 190 148 183 0
-13 -53 -92 -82 -122 -19 -20 -26 -34 -19 -38 6 -4 11 -3 11 1 0 9 25 42 94
122 22 25 66 79 98 119 32 40 58 69 58 64 0 -5 -13 -26 -30 -47 -16 -21 -30
-42 -30 -46 0 -16 15 -9 34 16 10 14 25 33 32 42 7 10 14 13 14 8 0 -6 -18
-32 -40 -59 -22 -26 -40 -53 -40 -60 0 -6 -9 -17 -20 -24 -12 -7 -18 -17 -15
-23 4 -5 16 3 28 18 12 15 32 39 44 53 12 14 31 36 42 50 11 14 20 20 21 13 0
-7 -20 -36 -45 -65 -92 -110 -107 -128 -141 -173 -19 -25 -30 -45 -24 -45 5 0
10 4 10 8 0 4 15 23 34 42 18 19 84 96 145 170 156 189 183 220 188 220 3 0
-13 -24 -34 -52z m-131 0 c-7 -7 -12 -8 -12 -2 0 14 12 26 19 19 2 -3 -1 -11
-7 -17z m84 -4 c-4 -9 -9 -15 -11 -12 -3 3 -3 13 1 22 4 9 9 15 11 12 3 -3 3
-13 -1 -22z m-2020 -51 c-3 -8 -6 -19 -6 -24 0 -11 -37 -12 -43 -1 -3 4 -1 17
4 29 6 16 13 20 29 16 13 -4 19 -11 16 -20z m1978 2 c-9 -14 -19 -23 -22 -20
-5 4 26 45 35 45 2 0 -4 -11 -13 -25z m180 10 c-4 -8 -11 -15 -16 -15 -6 0 -5
6 2 15 7 8 14 15 16 15 2 0 1 -7 -2 -15z m-2121 -20 c-10 -13 -22 -25 -27 -25
-5 0 1 11 14 25 30 32 36 32 13 0z m495 -5 c-7 -10 -14 -17 -17 -15 -4 4 18
35 25 35 2 0 -1 -9 -8 -20z m1236 -36 c-39 -42 -41 -44 21 42 5 8 11 10 13 5
2 -5 -14 -26 -34 -47z m66 25 c-7 -11 -14 -19 -16 -16 -7 7 7 37 17 37 6 0 5
-9 -1 -21z m-1767 -4 c-3 -9 -8 -14 -10 -11 -3 3 -2 9 2 15 9 16 15 13 8 -4z
m170 -10 c-10 -13 -22 -25 -27 -25 -5 0 1 11 14 25 30 32 36 32 13 0z m1493
-7 c-18 -26 -22 -17 -5 14 6 11 13 17 16 15 3 -3 -2 -16 -11 -29z m-1456 2
c-6 -11 -16 -20 -22 -20 -6 0 -3 9 7 20 10 11 20 20 22 20 2 0 -1 -9 -7 -20z
m48 0 c-7 -11 -17 -20 -22 -20 -5 0 -1 9 9 20 10 11 20 20 22 20 2 0 -2 -9 -9
-20z m82 -10 c-11 -11 -18 -26 -14 -33 5 -9 4 -9 -6 0 -11 11 -10 17 10 38 13
14 25 23 28 21 2 -2 -6 -14 -18 -26z m46 -1 c-14 -17 -24 -35 -21 -40 4 -5 -1
-6 -10 -3 -14 6 -13 10 7 33 42 48 63 57 24 10z m-100 -16 c-10 -10 -19 5 -10
18 6 11 8 11 12 0 2 -7 1 -15 -2 -18z m1429 -23 c-15 -23 -29 -39 -32 -37 -3
3 8 24 23 46 37 51 43 45 9 -9z m403 33 c-50 -60 -118 -145 -127 -160 -5 -10
-12 -15 -16 -11 -7 7 69 111 116 158 33 32 52 41 27 13z m-3482 -38 c11 -34
11 -35 -12 -35 -25 0 -29 14 -18 58 8 28 14 23 30 -23z m1777 21 c-10 -13 -20
-22 -22 -20 -4 4 29 44 36 44 2 0 -4 -11 -14 -24z m-2093 -9 c0 -2 -13 -16
-30 -32 l-30 -29 0 28 c0 21 4 27 15 23 8 -4 17 -2 20 3 6 9 25 14 25 7z
m1617 -23 c3 -8 12 -13 20 -10 8 3 24 -1 36 -10 21 -15 20 -15 -18 -8 -50 8
-77 22 -70 35 9 14 25 11 32 -7z m1715 -6 c-7 -7 -12 -8 -12 -2 0 14 12 26 19
19 2 -3 -1 -11 -7 -17z m446 -20 c-46 -60 -134 -166 -171 -208 -18 -20 -49
-55 -70 -79 -21 -23 -40 -41 -43 -39 -4 4 53 76 119 149 17 20 43 51 57 69 55
72 125 150 135 150 4 0 -8 -19 -27 -42z m-2013 1 c-4 -5 -21 -9 -38 -9 -27 1
-29 2 -14 11 9 5 22 7 27 4 6 -3 10 -1 10 5 0 6 5 8 10 5 6 -4 8 -11 5 -16z
m1515 7 c0 -2 -8 -10 -17 -17 -16 -13 -17 -12 -4 4 13 16 21 21 21 13z m479
-83 c-35 -43 -76 -91 -92 -108 -15 -16 -35 -41 -44 -55 -14 -22 -73 -77 -73
-68 0 8 49 71 87 111 21 23 54 62 72 86 52 66 104 122 109 117 2 -3 -24 -40
-59 -83z m-449 65 c0 -7 -37 -56 -82 -108 -44 -52 -79 -90 -77 -85 4 11 153
205 157 205 1 0 2 -6 2 -12z m509 -35 c-58 -76 -114 -144 -156 -191 -23 -25
-29 -42 -15 -42 8 1 92 104 92 113 0 3 25 32 56 64 31 32 49 47 40 33 -20 -31
-20 -44 -1 -36 21 8 19 -6 -5 -32 -27 -29 -26 -50 2 -26 28 25 16 4 -36 -64
-48 -61 -162 -184 -150 -161 11 21 53 74 79 103 35 37 78 96 73 101 -2 3 -16
-10 -30 -28 -54 -66 -120 -139 -143 -157 -16 -11 -15 -9 3 11 23 26 29 49 12
49 -5 0 -7 7 -4 15 7 18 -7 20 -25 3 -14 -13 38 57 74 101 75 90 138 161 142
161 3 0 -1 -8 -8 -17z m-1454 -63 c18 -8 17 -9 -7 -9 -16 -1 -28 4 -28 9 0 12
8 12 35 0z m-3182 -64 c-3 -15 2 -30 16 -43 l21 -20 -24 -13 c-33 -17 -56 -7
-56 27 l-1 28 -14 -33 c-15 -35 -36 -48 -56 -36 -9 5 6 24 47 61 32 29 62 53
65 53 3 0 4 -11 2 -24z m1076 -22 c66 -26 48 -49 -51 -66 -100 -16 -99 -19 12
-49 69 -19 145 -31 220 -36 l115 -7 -138 -13 -138 -13 -158 40 c-93 23 -182
40 -216 40 l-57 0 7 -42 c4 -24 9 -45 12 -48 3 -3 38 -5 78 -5 40 0 76 -3 79
-6 3 -3 -45 -11 -107 -18 -61 -7 -146 -19 -187 -27 -41 -8 -91 -14 -110 -13
-34 1 -33 1 14 14 27 8 52 17 57 22 5 5 4 47 -1 93 -5 47 -10 93 -10 103 0 14
-11 17 -72 18 -71 1 -72 1 -27 10 71 14 381 28 516 23 81 -2 135 -9 162 -20z
m3560 -52 c-13 -16 -48 -59 -78 -95 -30 -37 -58 -67 -63 -67 -12 0 -10 9 5 24
6 7 43 50 81 95 38 44 71 79 74 77 2 -3 -6 -18 -19 -34z m-2526 12 c27 -8 20
-24 -18 -39 -52 -23 -328 -85 -372 -85 -30 0 -46 6 -64 26 -13 14 -46 39 -74
55 -41 24 -63 29 -120 30 -57 2 -47 4 56 11 146 11 185 4 251 -46 l45 -35 96
26 c102 28 123 43 58 43 -44 0 -64 16 -29 23 27 5 145 -1 171 -9z m660 -39
c118 -18 176 -33 196 -51 31 -28 -60 -29 -163 -3 -35 9 -36 11 -20 24 16 11
10 14 -50 20 -114 13 -273 -11 -283 -41 -9 -27 126 -53 287 -55 58 -1 119 -5
135 -9 49 -13 -249 -9 -365 5 -152 19 -250 44 -250 66 0 13 34 28 97 43 79 19
290 19 416 1z m-2893 -10 c0 -9 -9 -25 -20 -37 -22 -24 -26 -12 -8 27 13 28
28 33 28 10z m4760 -4 c-5 -11 -7 -28 -4 -38 5 -15 4 -15 -5 -3 -8 12 -16 8
-45 -25 -19 -22 -35 -43 -36 -47 0 -4 -10 -13 -22 -19 -20 -11 -19 -7 7 23 17
19 48 56 69 81 41 50 53 59 36 28z m-4715 -29 c-3 -3 -11 0 -18 7 -9 10 -8 11
6 5 10 -3 15 -9 12 -12z m4485 5 c0 -2 -10 -12 -22 -23 l-23 -19 19 23 c18 21
26 27 26 19z m25 -27 c-10 -11 -21 -18 -23 -15 -3 3 3 12 14 20 27 20 30 18 9
-5z m167 -48 c-25 -34 -62 -67 -47 -42 19 33 58 80 62 76 3 -3 -4 -18 -15 -34z
m-1227 -12 c55 -6 136 -19 180 -29 44 -11 116 -25 160 -32 44 -6 86 -15 93
-19 8 -4 -37 -21 -102 -40 -64 -19 -116 -37 -116 -42 0 -4 30 -8 68 -9 37 0
76 -5 87 -10 28 -13 -139 -2 -237 15 -43 8 -92 22 -110 31 -18 9 -76 21 -128
26 -165 16 -297 46 -319 73 -10 12 -8 16 11 22 72 23 269 30 413 14z m-1139
-13 c3 -2 -73 -7 -168 -10 -158 -6 -398 -31 -538 -57 -121 -22 -177 -31 -215
-35 l-40 -5 40 15 c90 35 358 81 546 93 105 7 368 6 375 -1z m274 -16 c63 -11
102 -19 85 -20 -16 0 -64 5 -105 10 -41 6 -111 15 -155 19 l-80 7 70 1 c39 1
122 -7 185 -17z m-2732 -48 l27 -23 -25 -1 c-17 -1 -19 -3 -7 -6 18 -5 24 -33
6 -33 -6 0 -19 5 -30 10 -16 9 -19 7 -19 -10 0 -12 11 -36 24 -53 41 -57 43
-83 2 -52 -10 8 -23 12 -27 9 -13 -8 -11 121 3 174 8 30 13 40 16 27 2 -11 15
-30 30 -42z m2986 7 c14 -6 6 -7 -24 -3 -66 9 -107 24 -46 17 27 -3 58 -10 70
-14z m71 -10 c19 -8 19 -9 -2 -9 -12 -1 -25 4 -28 9 -7 12 2 12 30 0z m-1292
-25 c-3 -9 -8 -14 -10 -11 -3 3 -2 9 2 15 9 16 15 13 8 -4z m1447 -11 c0 -2
-9 -4 -20 -4 -11 0 -20 4 -20 9 0 5 9 7 20 4 11 -3 20 -7 20 -9z m-1530 -4 c0
-5 -2 -10 -4 -10 -3 0 -8 5 -11 10 -3 6 -1 10 4 10 6 0 11 -4 11 -10z m-200
-9 c-8 -5 -49 -20 -91 -34 -105 -35 -175 -70 -309 -151 -115 -69 -217 -139
-300 -206 -25 -20 -56 -43 -70 -53 -14 -9 -47 -32 -75 -52 -27 -19 -54 -35
-58 -35 -5 0 -15 -6 -22 -12 -8 -7 -22 -19 -30 -27 -11 -9 -13 -17 -7 -23 6
-6 8 -32 5 -59 -4 -42 -1 -53 21 -80 30 -35 28 -24 30 -192 1 -86 5 -130 13
-135 6 -4 14 -30 17 -57 2 -28 11 -66 20 -86 8 -20 13 -39 10 -41 -2 -3 0 -18
6 -33 10 -25 9 -27 -6 -14 -18 15 -94 124 -94 135 0 4 -12 23 -27 42 -15 20
-57 98 -95 174 -62 125 -88 162 -88 124 0 -8 -7 -16 -15 -20 -17 -6 -21 9 -5
19 14 9 12 68 -3 89 -13 18 -42 24 -117 25 -44 1 -44 1 -21 17 14 10 26 13 30
7 3 -6 26 -12 51 -15 l45 -5 0 43 c0 23 -3 40 -7 38 -3 -2 -8 2 -11 8 -3 9
-14 4 -34 -14 -34 -33 -48 -36 -33 -8 18 33 64 52 94 39 14 -7 23 -16 20 -20
-12 -20 67 8 131 47 39 23 99 58 135 78 36 20 117 77 180 126 202 156 395 266
593 335 90 32 150 45 117 26z m346 -2 c4 -8 -1 -9 -16 -4 -15 5 -20 3 -16 -3
9 -15 -13 -27 -26 -14 -6 6 -7 15 -4 21 9 14 53 14 62 0z m-186 -10 c-11 -8
-5 -9 25 -5 22 3 50 9 63 12 13 4 22 2 22 -5 0 -6 -7 -8 -17 -4 -10 4 -14 2
-9 -5 3 -6 1 -14 -5 -18 -8 -4 -9 -3 -5 4 14 23 -15 12 -41 -15 -15 -16 -23
-22 -19 -15 4 6 3 12 -3 12 -5 0 -9 -9 -8 -19 1 -12 8 -19 19 -18 10 1 16 7
14 14 -3 7 -1 15 3 18 5 3 12 -3 16 -13 6 -16 7 -16 21 2 8 11 14 15 14 8 0
-6 11 -14 25 -18 14 -3 25 -12 25 -20 0 -8 8 -14 18 -13 10 0 12 3 5 6 -7 2
-13 8 -13 13 0 4 11 3 24 -3 l24 -12 -30 -12 c-17 -7 -44 -13 -60 -13 -48 0
-22 -17 28 -18 26 -1 48 -3 50 -5 2 -1 -3 -15 -10 -29 -13 -24 -12 -25 8 -21
17 4 18 3 6 -6 -13 -9 -12 -11 1 -16 10 -4 16 -17 15 -35 -1 -15 -4 -26 -8
-23 -5 2 -8 -1 -8 -7 0 -6 10 -10 23 -9 45 4 67 -1 67 -16 0 -8 8 -15 18 -16
10 0 12 -3 5 -6 -7 -2 -13 -12 -13 -21 0 -13 2 -14 8 -4 6 9 16 10 33 4 13 -4
34 -7 46 -6 12 0 22 -2 21 -5 -2 -20 4 -31 17 -31 8 0 15 7 15 16 0 9 6 14 13
11 6 -2 11 -10 9 -17 -2 -8 3 -10 13 -7 10 4 15 0 15 -12 0 -11 9 -21 21 -24
12 -3 18 -10 14 -16 -3 -6 -1 -11 4 -11 6 0 11 5 11 11 0 21 19 -2 25 -32 5
-22 3 -34 -6 -40 -10 -6 -7 -8 9 -6 12 0 22 8 22 15 0 12 3 12 15 2 8 -7 15
-9 16 -4 0 5 5 -4 10 -21 5 -19 5 -31 -2 -36 -6 -3 3 -11 20 -17 27 -10 31
-15 28 -43 -2 -29 -27 -56 -27 -30 0 6 -5 11 -12 11 -6 0 -2 -10 10 -23 18
-19 21 -33 19 -92 -2 -58 -6 -74 -25 -92 -25 -24 -41 -31 -24 -10 7 8 5 16 -6
27 -14 13 -15 12 -9 -2 3 -9 -1 -22 -9 -28 -11 -10 -14 -10 -14 0 0 7 -8 10
-19 7 -12 -3 -18 1 -17 12 1 10 -5 15 -17 13 -11 -2 -27 4 -37 13 -15 13 -23
14 -39 5 -12 -6 -26 -8 -31 -5 -6 4 -13 0 -16 -9 -8 -21 -34 -8 -34 17 0 16
-3 18 -12 9 -16 -16 -69 -16 -66 1 3 11 -3 11 -46 -1 -15 -4 -17 -1 -11 17 6
20 4 21 -12 14 -26 -13 -49 -9 -45 7 2 8 8 17 13 18 5 2 9 8 9 13 0 6 -4 8 -9
5 -5 -4 -12 -1 -14 4 -3 6 -4 5 -3 -2 3 -15 -17 -38 -33 -38 -6 0 -11 -8 -11
-17 0 -15 -2 -14 -15 3 -8 10 -15 14 -15 8 0 -7 -7 -14 -14 -17 -10 -4 -13 -1
-9 9 3 7 0 14 -6 14 -6 0 -11 -6 -11 -12 0 -9 -3 -9 -8 -2 -8 12 -52 14 -52 2
0 -4 -8 -8 -17 -8 -15 0 -16 2 -3 10 9 6 10 10 3 10 -7 0 -17 -8 -22 -17 -10
-17 -10 -17 -11 1 0 15 -5 17 -27 10 -16 -4 -40 -8 -55 -8 -14 -1 -25 -3 -22
-5 7 -7 -43 -29 -83 -36 -21 -3 -49 -13 -63 -20 -25 -14 -25 -14 -2 -15 12 0
22 -5 22 -11 0 -5 -4 -7 -10 -4 -5 3 -10 1 -10 -4 0 -8 -6 -7 -18 0 -15 10
-25 7 -53 -12 -19 -13 -37 -28 -41 -34 -4 -5 -8 -6 -8 -1 0 5 -7 3 -15 -4 -8
-6 -19 -9 -25 -5 -5 3 -10 2 -10 -4 0 -5 5 -11 12 -13 18 -6 -1 -28 -24 -28
-26 0 -16 -13 14 -17 12 -2 25 -8 28 -14 4 -5 14 -7 23 -3 10 3 17 1 17 -5 0
-6 -8 -11 -17 -12 -15 0 -15 -2 2 -9 14 -6 16 -9 5 -11 -8 -1 7 -5 35 -9 27
-3 63 -3 80 1 29 7 29 7 -10 9 -22 1 -50 1 -62 0 -17 -1 -23 4 -23 18 0 14 5
19 18 16 34 -7 102 -11 102 -6 0 10 -36 31 -55 32 -11 0 -31 7 -45 15 l-25 14
28 1 c16 0 26 -4 23 -9 -3 -5 13 -11 37 -13 23 -3 51 -8 62 -12 14 -6 16 -5 7
2 -10 7 -6 11 18 15 30 6 82 -11 92 -30 3 -5 3 -3 2 4 -2 6 5 14 14 16 14 4
13 5 -3 6 -38 2 -46 17 -9 18 22 1 37 -4 41 -13 3 -8 12 -14 20 -14 10 0 13
-6 9 -16 -4 -12 -2 -15 9 -11 8 4 17 2 20 -3 4 -6 -4 -10 -17 -11 -13 0 -17
-3 -10 -6 7 -3 26 0 42 5 16 6 32 7 35 3 6 -11 -28 -20 -75 -22 -19 -1 -27 -3
-17 -6 9 -2 17 -9 17 -15 0 -5 -7 -8 -15 -4 -8 3 -29 -1 -47 -9 -18 -8 -28
-14 -23 -15 13 0 -52 -40 -65 -40 -6 0 -19 -9 -31 -21 -11 -11 -27 -18 -36
-15 -11 5 -13 2 -9 -9 4 -10 -2 -19 -18 -25 -27 -10 -44 -30 -25 -30 8 0 8 -4
-1 -15 -7 -8 -9 -15 -5 -15 4 0 -4 -20 -18 -44 -23 -42 -23 -44 -6 -57 15 -10
16 -16 6 -28 -10 -11 -9 -13 3 -9 8 3 14 15 13 27 -2 12 1 20 6 16 5 -3 19 9
31 25 12 17 25 29 28 26 3 -3 11 -1 19 5 10 9 13 8 13 -1 0 -9 3 -10 13 -1 8
6 18 7 22 3 5 -4 6 0 2 10 -9 27 3 27 30 2 14 -13 34 -24 44 -24 10 0 20 -4
24 -10 3 -5 13 -6 22 -3 10 4 14 2 9 -5 -3 -6 3 -13 14 -17 11 -3 20 -11 20
-16 0 -5 11 -9 24 -9 14 0 31 -6 38 -12 7 -7 25 -13 40 -12 17 1 25 -3 21 -12
-2 -7 -11 -10 -18 -8 -7 3 -16 0 -21 -7 -4 -8 -3 -10 4 -5 7 4 12 0 12 -10 0
-16 1 -16 19 0 17 15 19 16 25 1 3 -9 4 -21 1 -26 -4 -5 1 -6 9 -3 9 4 18 -1
22 -10 3 -9 9 -14 14 -11 4 2 6 -13 5 -35 -1 -22 1 -37 5 -35 10 6 21 -38 11
-45 -12 -8 -20 -50 -9 -50 5 0 6 -5 2 -11 -4 -7 0 -9 14 -5 11 4 23 2 27 -5 6
-8 10 -7 16 2 6 10 9 10 9 2 0 -9 7 -10 25 -3 22 8 25 7 25 -11 0 -18 -2 -19
-15 -9 -12 10 -15 10 -15 -3 0 -19 31 -31 41 -16 9 16 29 2 22 -16 -3 -8 0
-15 6 -15 6 0 11 4 11 9 0 5 3 17 7 27 4 11 3 15 -4 11 -6 -4 -14 0 -17 9 -3
9 -11 12 -18 8 -8 -5 -8 -1 1 10 14 16 16 17 27 1 8 -10 14 -12 19 -6 8 14 26
14 23 0 -2 -6 3 -14 10 -16 7 -3 12 3 12 13 0 13 3 15 11 7 15 -15 52 -4 45
13 -6 15 27 38 38 27 3 -3 17 -7 30 -9 19 -2 25 3 30 27 4 21 15 34 36 43 17
7 27 16 23 20 -4 4 0 4 10 0 10 -3 17 -1 17 5 0 7 9 21 20 33 10 12 17 25 14
30 -3 4 0 8 7 8 10 0 10 3 2 11 -9 9 -8 19 2 40 16 30 17 81 1 72 -5 -4 -7 3
-4 15 4 13 2 19 -6 16 -6 -2 -16 7 -23 21 -13 30 -7 31 27 5 28 -22 60 -26 60
-7 -1 6 -7 29 -14 50 -10 26 -10 37 -2 38 6 1 0 4 -14 8 -15 4 -24 14 -24 24
1 9 -5 17 -13 17 -7 0 -25 11 -38 24 -13 14 -34 27 -45 31 -28 9 -21 15 29 26
25 6 50 5 67 -1 34 -13 40 -7 17 16 -14 14 -14 17 -2 12 8 -3 26 0 40 8 l24
14 -30 -6 -30 -7 24 27 c14 14 19 26 13 26 -7 0 -12 10 -12 22 0 12 -3 18 -7
14 -4 -3 -12 8 -18 26 -11 34 -2 88 16 88 4 0 8 15 7 33 -1 46 12 117 23 117
5 0 9 9 9 21 0 11 4 18 9 15 4 -3 6 -17 3 -31 -3 -20 -1 -24 11 -19 12 4 14 1
10 -15 -3 -12 -1 -21 4 -21 6 0 10 -25 9 -55 -1 -30 2 -55 6 -55 5 0 8 -7 8
-15 0 -8 -6 -12 -13 -9 -11 4 -13 -9 -8 -58 1 -5 8 -8 17 -8 11 0 14 -5 10
-16 -6 -15 -4 -15 10 -3 15 12 16 11 10 -9 -6 -17 -3 -22 9 -22 11 0 15 -5 11
-15 -5 -13 -2 -13 19 1 15 10 25 26 25 41 0 14 4 21 10 18 6 -4 8 -11 5 -16
-4 -5 1 -9 9 -9 8 0 16 -6 19 -12 2 -7 2 -3 1 9 -2 12 0 25 6 28 10 6 14 -7
11 -32 -1 -8 5 -10 14 -7 9 4 14 13 11 21 -3 8 -6 19 -6 24 0 5 -7 9 -16 9 -8
0 -12 5 -9 10 12 20 35 10 35 -15 0 -14 4 -25 9 -25 12 0 20 -46 10 -62 -7
-10 -9 -10 -10 2 0 8 -4 4 -8 -10 -5 -18 -2 -29 11 -41 15 -14 17 -27 12 -80
-13 -156 -15 -175 -15 -191 0 -10 -5 -18 -10 -18 -5 0 -7 -11 -3 -25 4 -16 2
-25 -5 -25 -12 0 -8 -41 9 -84 6 -17 6 -26 0 -26 -6 0 -10 -4 -10 -9 0 -5 8
-7 18 -4 15 4 17 -1 14 -38 -3 -28 -7 -37 -13 -28 -7 11 -9 11 -9 1 0 -7 6
-15 14 -18 11 -4 11 -11 1 -42 -9 -24 -10 -43 -4 -55 7 -12 6 -19 -3 -22 -7
-3 -14 -17 -14 -31 -1 -14 -11 -34 -23 -45 -12 -11 -21 -28 -21 -38 0 -10 -7
-24 -14 -31 -11 -8 -12 -18 -6 -36 8 -19 6 -26 -6 -31 -11 -4 -14 -14 -10 -34
3 -18 1 -29 -5 -29 -8 0 -7 -5 1 -16 8 -9 14 -44 14 -87 1 -40 5 -75 10 -79 5
-3 4 -19 -3 -36 -8 -18 -10 -44 -6 -62 5 -23 2 -36 -10 -50 -17 -18 -16 -20
28 -47 26 -15 47 -34 47 -40 0 -7 5 -13 10 -13 6 0 10 -8 10 -19 0 -10 6 -24
14 -30 7 -6 13 -21 12 -33 -1 -31 -42 -39 -84 -16 -25 14 -38 16 -52 8 -15 -8
-20 -8 -20 1 0 15 -66 3 -94 -17 -19 -13 -19 -14 -2 -14 19 0 19 -1 1 -20 -10
-11 -25 -18 -34 -15 -9 2 -29 0 -46 -5 -28 -9 -28 -10 10 -6 39 4 32 -2 -18
-18 -10 -3 -16 -9 -14 -13 3 -5 -13 -21 -36 -36 -30 -22 -38 -24 -33 -12 5 14
4 15 -7 7 -7 -7 -23 -13 -35 -15 -32 -5 -39 -17 -14 -24 12 -3 22 -7 22 -10 0
-10 -35 -49 -45 -51 -5 0 -19 -4 -30 -8 -11 -3 -24 -7 -30 -8 -25 -5 -152 -71
-168 -87 -10 -11 -23 -19 -30 -19 -6 0 -1 7 11 16 12 8 22 20 22 25 0 6 -7 3
-16 -6 -20 -20 -32 -11 -14 10 8 10 9 15 1 15 -6 0 -2 14 9 33 21 34 27 87 10
87 -6 0 -15 -10 -20 -22 -7 -19 -8 -17 -8 15 1 26 8 43 21 52 13 9 17 20 13
33 -6 17 -3 19 14 15 15 -4 20 -1 20 16 0 11 5 21 10 21 6 0 10 7 10 15 0 8 5
15 11 15 5 0 7 5 3 12 -5 7 -2 9 8 6 12 -5 14 0 12 23 -3 24 2 33 27 48 20 13
26 21 17 24 -9 4 -10 8 -2 14 6 4 14 18 18 31 4 12 12 22 17 22 5 0 9 8 9 18
0 11 8 5 22 -18 13 -22 23 -30 26 -21 4 11 6 11 14 0 6 -10 7 -7 3 9 -10 34
-9 107 0 123 5 7 8 30 6 50 -1 20 3 40 8 44 6 3 9 10 7 14 -3 4 3 17 14 28 19
21 19 21 -15 27 -19 4 -34 12 -32 19 1 7 -10 13 -25 15 -24 3 -50 32 -28 32 6
0 10 7 10 15 0 8 -6 15 -14 15 -14 0 -18 8 -30 63 -6 25 -5 27 13 15 11 -6 17
-16 15 -20 -3 -4 0 -8 6 -8 15 0 2 42 -16 53 -8 4 -14 13 -14 18 0 6 4 7 10 4
6 -3 7 1 4 9 -3 9 -10 13 -16 10 -5 -3 -8 2 -6 12 2 13 -3 19 -14 18 -10 -1
-18 5 -18 13 0 8 5 11 10 8 6 -3 10 -4 10 -1 0 3 -10 10 -21 17 -13 6 -19 7
-15 1 3 -6 0 -17 -9 -25 -12 -13 -12 -17 -1 -26 8 -7 17 -23 20 -37 4 -14 11
-22 16 -19 6 3 10 1 10 -4 0 -16 -11 -13 -34 8 -12 11 -30 21 -41 22 -29 4
-65 -18 -65 -41 0 -10 -5 -22 -12 -26 -8 -5 -9 0 -6 14 4 12 3 22 -2 22 -10 0
-21 -30 -15 -40 3 -5 1 -11 -5 -15 -5 -3 -10 -1 -10 4 0 6 -5 11 -10 11 -6 0
-8 -11 -6 -25 3 -15 0 -25 -7 -25 -7 0 -4 -7 6 -14 17 -14 23 -27 10 -25 -23
4 -34 -3 -31 -18 1 -10 -1 -23 -4 -29 -4 -6 -8 -26 -10 -45 -1 -19 -5 -38 -9
-44 -4 -5 -1 -16 6 -22 9 -8 16 -9 20 -3 11 18 20 11 21 -18 1 -15 -1 -21 -3
-14 -7 18 -33 -5 -33 -29 0 -27 17 -32 24 -7 4 18 8 20 18 10 9 -9 9 -15 -4
-24 -8 -7 -21 -22 -27 -33 -12 -19 -12 -19 -7 3 3 15 0 22 -7 19 -7 -2 -11
-19 -9 -36 2 -30 1 -32 -14 -16 -20 20 -29 13 -16 -12 11 -21 5 -43 -11 -43
-7 0 -17 -12 -24 -26 -10 -22 -10 -25 3 -20 19 7 18 3 -11 -28 -13 -14 -33
-26 -44 -26 -11 0 -23 -5 -27 -12 -5 -8 2 -9 23 -5 27 5 30 4 26 -17 -3 -12
-14 -26 -26 -31 -18 -8 -22 -17 -20 -47 2 -31 -3 -41 -30 -62 -17 -14 -27 -26
-22 -26 6 0 16 5 23 12 15 15 15 8 2 -26 -7 -19 -6 -26 2 -26 6 0 4 -8 -5 -18
-18 -20 -23 -37 -8 -27 5 3 12 1 16 -5 3 -5 -6 -12 -20 -16 -15 -4 -24 -12
-21 -19 2 -7 -2 -22 -10 -34 -16 -22 -6 -29 14 -9 9 9 12 9 12 0 0 -6 -9 -16
-20 -22 -16 -9 -19 -17 -13 -48 4 -20 6 -52 5 -70 -2 -23 1 -31 10 -26 6 4 8
3 4 -4 -3 -5 -8 -32 -11 -59 -4 -44 -3 -46 11 -28 13 18 14 17 8 -13 -5 -22
-3 -32 6 -32 7 0 10 -8 7 -20 -3 -11 -1 -23 4 -26 5 -3 6 -17 2 -32 -6 -24 -4
-25 9 -14 10 8 18 9 22 3 4 -6 -3 -15 -15 -22 -16 -8 -18 -13 -9 -19 7 -5 18
-6 24 -4 6 2 16 -7 23 -21 6 -14 7 -25 2 -25 -5 0 -9 -4 -9 -10 0 -5 8 -10 17
-10 13 0 14 -3 5 -12 -15 -15 -16 -31 -1 -22 6 3 16 0 21 -7 8 -11 9 -10 4 3
-3 10 -1 20 4 23 6 4 10 1 10 -5 0 -6 5 -8 11 -4 7 4 8 9 0 17 -7 7 -4 22 10
48 20 39 34 53 22 22 -5 -12 -2 -15 10 -10 11 4 14 2 10 -9 -5 -12 1 -16 24
-13 3 0 12 -12 19 -28 7 -15 13 -23 13 -17 1 7 8 15 17 18 10 4 13 2 8 -6 -5
-8 -2 -9 9 -5 13 5 17 1 17 -15 0 -19 1 -19 21 6 11 14 24 24 29 21 4 -3 10 5
13 16 4 14 11 20 21 16 10 -4 13 -1 9 9 -4 10 2 17 16 21 11 3 21 11 21 18 0
20 42 32 104 29 50 -2 59 0 63 16 4 15 12 19 36 16 16 -2 44 1 61 6 46 14 172
18 205 7 17 -6 34 -22 41 -40 7 -16 16 -26 21 -23 5 3 9 -2 9 -11 0 -8 6 -18
13 -21 8 -3 14 -19 15 -35 0 -17 7 -38 14 -47 9 -12 10 -14 1 -8 -16 9 -17
-12 -3 -34 9 -13 11 -13 20 0 8 13 10 12 10 -2 0 -10 5 -18 10 -18 6 0 10 -5
10 -12 0 -6 -3 -9 -6 -5 -7 7 -34 -17 -34 -30 0 -4 -11 -20 -25 -35 -14 -15
-25 -31 -25 -36 0 -6 -7 -12 -15 -16 -8 -3 -15 -10 -15 -16 0 -6 -16 -37 -35
-68 l-36 -57 42 45 c33 36 38 39 25 15 -16 -29 -16 -29 14 5 17 19 29 28 26
20 -16 -53 -16 -69 0 -63 14 5 16 2 12 -15 -4 -15 -2 -19 9 -15 13 5 13 2 4
-15 -16 -29 -14 -37 6 -21 15 13 16 12 11 -9 -5 -19 -4 -21 8 -11 17 14 18 2
4 -35 -11 -30 3 -36 19 -8 8 14 10 14 11 2 0 -20 -28 -60 -42 -60 -5 0 -7 7
-4 16 5 14 4 15 -9 4 -8 -7 -15 -16 -15 -21 0 -17 40 -9 60 11 24 24 27 4 3
-22 -16 -18 -16 -18 2 -12 13 5 16 4 11 -4 -4 -7 -2 -12 3 -12 6 0 11 7 11 15
0 8 4 15 10 15 6 0 6 -9 0 -26 -9 -22 -8 -25 5 -20 9 3 15 0 15 -9 0 -8 -5
-15 -11 -15 -6 0 -8 -9 -4 -21 5 -16 4 -19 -5 -14 -10 6 -11 1 -7 -17 5 -19
-1 -36 -23 -67 -17 -22 -30 -47 -30 -55 0 -8 -5 -18 -10 -21 -6 -3 -10 -2 -10
4 0 10 -18 10 -37 -2 -6 -4 -14 -3 -17 2 -4 5 -3 11 2 13 4 1 17 16 30 32 12
16 22 22 22 14 0 -8 -5 -19 -12 -26 -9 -9 -9 -12 3 -12 9 0 16 11 17 31 1 18
6 37 10 43 3 6 5 19 4 29 -2 10 2 26 9 35 12 15 11 16 -3 2 -10 -8 -19 -28
-22 -44 -3 -16 -8 -31 -12 -35 -4 -3 -4 2 -1 12 4 9 2 17 -3 17 -6 0 -10 -7
-10 -15 0 -8 -14 -29 -31 -47 -32 -34 -30 -25 4 27 17 25 12 23 -24 -12 -45
-43 -78 -60 -44 -23 17 19 17 19 -5 15 -17 -3 -20 -1 -11 9 7 8 11 18 10 22
-3 20 2 34 12 34 6 0 8 -9 4 -21 -5 -15 -4 -19 4 -15 6 4 11 13 11 21 0 8 10
21 23 31 16 12 17 15 4 10 -10 -3 -25 -6 -32 -6 -8 0 -31 -18 -51 -40 -34 -36
-65 -55 -49 -30 11 19 -3 10 -41 -25 -22 -19 -43 -35 -47 -35 -5 0 -5 -5 -1
-12 4 -6 3 -8 -3 -5 -6 4 -14 0 -17 -9 -4 -9 -9 -14 -13 -10 -3 3 -16 -1 -27
-11 -12 -9 -5 -1 14 18 20 19 51 45 69 59 29 22 31 26 13 26 -12 0 -19 -2 -17
-5 7 -6 -15 -31 -27 -31 -6 0 -4 8 3 17 13 16 12 17 -3 4 -10 -7 -16 -17 -13
-21 2 -4 -7 -13 -21 -21 -14 -7 -30 -21 -35 -31 -5 -9 -16 -15 -23 -12 -15 6
-81 -24 -73 -33 3 -2 16 1 29 8 30 17 48 20 48 8 0 -5 -6 -9 -12 -9 -7 0 -24
-12 -37 -25 -13 -14 -18 -25 -12 -25 6 0 4 -14 -7 -37 -20 -44 -29 -53 -57
-53 -16 0 -13 5 15 31 19 17 27 28 18 25 -24 -7 -32 10 -11 24 14 8 12 9 -12
4 -16 -4 -38 -11 -47 -15 -25 -13 -61 -11 -52 3 5 8 2 9 -9 5 -9 -3 -19 -2
-22 3 -4 6 5 10 19 10 18 0 24 4 20 15 -4 10 0 15 12 15 20 1 64 29 48 31 -10
2 -18 0 -56 -11 -37 -11 -36 4 2 20 16 7 28 17 27 24 -1 6 4 10 11 8 8 -1 11
2 7 8 -3 5 1 10 10 10 11 0 15 5 12 14 -3 7 -2 18 1 23 4 5 -12 -10 -35 -34
-38 -39 -90 -70 -100 -59 -3 2 5 10 17 16 36 19 60 44 59 60 0 13 -1 13 -6 0
-7 -17 -44 -49 -58 -50 -5 0 -21 -6 -35 -13 -26 -13 -75 -16 -87 -4 -3 4 4 16
17 27 28 24 25 24 44 4 15 -14 16 -14 16 0 0 14 -19 21 -44 17 -6 -1 -23 -5
-39 -8 -24 -5 -28 -3 -22 8 6 11 5 12 -6 2 -14 -14 -63 -18 -55 -5 3 5 -18 3
-47 -5 -29 -7 -57 -11 -64 -9 -6 3 -17 -2 -24 -10 -10 -13 -3 -14 54 -10 37 3
77 1 89 -4 19 -8 16 -9 -14 -5 -21 3 -38 2 -38 -2 0 -5 8 -9 18 -9 9 -1 30 -4
46 -7 34 -7 55 1 35 14 -10 6 -11 9 -1 9 6 0 21 -9 31 -19 16 -16 17 -20 4
-25 -8 -3 -24 -4 -36 -1 -13 4 -31 -1 -42 -10 -11 -9 -14 -14 -7 -10 7 4 34 7
61 9 46 2 49 1 39 -17 -5 -11 -18 -22 -28 -24 -17 -5 -17 -6 -2 -24 9 -10 25
-19 35 -19 33 0 56 -18 50 -40 -3 -11 -10 -17 -17 -14 -6 3 -3 -1 7 -9 10 -9
15 -21 11 -31 -4 -10 -1 -16 7 -16 11 0 11 -3 -1 -10 -8 -5 -10 -10 -4 -10 6
0 17 7 24 15 7 8 20 14 29 14 13 -1 13 -2 -1 -6 -31 -8 -19 -23 18 -23 21 0
33 -4 29 -10 -3 -5 0 -10 7 -10 9 0 9 -3 -2 -10 -9 -6 -10 -10 -3 -10 6 0 15
4 18 10 3 5 13 10 21 10 8 0 12 -5 9 -10 -4 -6 -10 -8 -15 -5 -4 3 -7 -3 -5
-12 1 -10 -3 -24 -9 -32 -9 -12 -8 -12 11 -3 27 15 36 15 28 2 -8 -13 1 -13
26 0 13 8 19 7 19 0 0 -6 5 -8 12 -4 7 4 8 3 4 -5 -4 -6 -11 -9 -16 -6 -5 3
-11 1 -15 -5 -3 -5 3 -10 14 -10 11 0 22 4 26 10 3 5 12 7 20 4 12 -5 12 -8
-2 -22 -10 -11 -12 -17 -4 -20 6 -2 9 -8 5 -13 -10 -17 9 -9 22 8 7 10 15 15
19 11 4 -3 -3 -16 -16 -29 l-22 -22 24 5 c13 3 31 7 39 9 8 2 14 -2 13 -8 -4
-18 12 -16 27 2 18 21 27 19 26 -7 -1 -23 5 -25 51 -14 17 4 21 1 16 -12 -6
-15 -5 -16 13 -2 18 14 18 14 5 -2 -7 -10 -20 -18 -27 -18 -8 0 -14 -4 -14
-10 0 -10 20 -14 52 -12 14 1 16 -5 12 -41 -6 -46 -14 -63 -14 -29 0 12 -5 22
-11 22 -7 0 -8 -7 -4 -18 17 -42 15 -54 -7 -49 -13 4 -17 2 -12 -3 5 -5 26
-11 46 -12 26 -2 38 -9 42 -21 3 -14 11 -16 35 -12 19 3 31 1 31 -5 0 -6 6
-10 13 -8 6 1 25 -1 42 -6 29 -7 29 -8 11 -22 -24 -17 -15 -29 12 -15 15 8 27
7 47 -3 25 -13 25 -15 8 -25 -10 -6 -13 -11 -5 -11 7 0 10 -4 7 -10 -3 -5 -1
-10 4 -10 6 0 11 4 11 9 0 5 8 8 18 7 26 -4 17 -20 -16 -27 -48 -10 -58 -20
-36 -37 12 -9 13 -13 4 -10 -54 18 -60 19 -60 7 0 -7 -3 -9 -7 -6 -3 4 2 16
11 26 17 19 17 19 -3 14 -12 -3 -21 -12 -21 -19 0 -8 -8 -14 -17 -14 -16 0
-16 -2 -3 -11 15 -11 3 -9 -65 7 -17 4 -25 2 -25 -7 0 -10 -3 -10 -11 -2 -6 6
-17 9 -24 7 -6 -3 -18 3 -26 12 -13 16 -12 17 8 12 13 -4 25 -3 28 2 5 9 -52
20 -60 11 -10 -9 -35 -9 -29 0 3 5 12 9 20 9 24 0 16 17 -12 24 -16 4 -24 12
-21 21 3 7 -1 16 -10 19 -10 4 -13 2 -10 -8 4 -11 -6 -13 -46 -11 -32 2 -51 7
-50 14 2 6 -2 11 -7 11 -5 0 -9 3 -7 7 1 5 -3 8 -8 8 -6 0 -9 -3 -8 -7 3 -8
-45 -4 -54 5 -3 4 -15 7 -25 7 -11 0 -17 3 -15 8 8 13 -17 27 -48 27 -16 0
-35 3 -41 8 -7 4 -26 9 -43 10 -17 1 -31 5 -31 9 0 7 -56 41 -70 43 -3 0 -25
13 -49 29 -61 39 -160 140 -202 206 -61 95 -146 281 -188 410 -47 144 -45 133
-28 127 17 -6 60 45 45 54 -9 6 -8 12 3 25 8 9 13 19 11 22 -3 5 53 32 60 29
1 -1 2 0 1 2 -2 2 5 10 15 18 9 8 -6 2 -35 -12 -65 -31 -67 -31 -47 1 11 17
24 24 36 21 10 -3 16 -1 12 4 -3 5 -12 9 -20 9 -8 0 -14 5 -14 11 0 5 -5 7
-11 3 -8 -5 -8 -8 0 -13 8 -5 4 -14 -11 -27 -19 -16 -20 -16 -9 -1 8 9 11 21
7 24 -4 4 -11 1 -16 -7 -18 -29 -10 -1 11 37 l21 38 -21 -25 c-12 -14 -26 -35
-31 -47 -5 -13 -14 -23 -20 -23 -12 0 -12 4 -1 52 5 22 5 36 0 32 -5 -3 -9 13
-9 35 0 22 5 43 10 46 6 3 10 14 10 23 0 13 -2 13 -15 -4 -17 -23 -18 -19 -6
24 5 17 8 32 5 32 -10 0 -25 -56 -29 -107 -4 -43 -2 -53 10 -53 17 0 18 -14 5
-45 -7 -17 -9 -16 -10 10 -1 26 -3 27 -10 10 -7 -17 -9 -16 -9 10 -1 23 -4 27
-11 15 -8 -12 -10 -8 -11 15 -1 17 -1 39 0 50 1 11 -2 16 -6 10 -4 -5 -15 -10
-23 -10 -8 0 -14 -6 -13 -12 2 -7 -6 -13 -17 -13 -13 0 -20 7 -20 20 0 11 -9
29 -20 40 -11 11 -20 27 -20 35 0 8 -5 15 -10 15 -6 0 -8 12 -5 28 6 26 6 26
-9 8 -14 -18 -21 -15 -17 7 3 15 -32 117 -40 117 -4 0 -2 13 4 30 6 16 15 30
19 30 4 0 8 5 8 12 0 6 -9 3 -20 -7 -11 -10 -23 -16 -26 -13 -9 10 -54 141
-54 159 0 11 -3 19 -7 19 -5 0 -9 12 -9 28 -3 61 -13 134 -18 139 -14 14 -5
107 12 127 16 20 16 20 0 7 -20 -15 -19 -17 -23 59 -1 31 3 49 14 57 14 12 14
12 -1 7 -14 -5 -18 -1 -18 20 0 14 6 26 13 27 10 0 10 2 0 6 -18 7 -16 34 4
63 l17 24 -31 -22 c-18 -12 -40 -40 -49 -62 -10 -22 -21 -40 -25 -40 -4 0 -10
-12 -13 -26 -9 -34 -24 -27 -69 32 -43 56 -147 258 -147 285 0 10 -5 21 -11
24 -5 4 -8 12 -6 18 5 15 -20 70 -56 124 -54 79 -60 127 -43 343 7 87 6 111
-6 135 -9 17 -39 100 -67 185 -46 137 -52 165 -52 238 0 97 20 148 66 171 49
24 92 16 138 -26 23 -20 44 -43 47 -50 3 -7 10 -9 18 -4 11 7 12 19 4 62 -6
30 -13 88 -17 129 -4 41 -15 127 -26 191 -11 65 -20 177 -22 255 -2 124 0 143
18 174 25 43 40 59 90 96 21 16 55 46 74 67 19 21 46 44 60 52 14 7 44 30 66
50 22 20 58 46 80 57 22 11 52 29 67 40 16 11 34 16 40 12 7 -4 10 -3 5 1 -8
9 79 75 100 75 8 0 16 7 19 15 4 10 11 12 23 5 13 -6 21 -4 31 10 9 13 16 16
21 8 4 -6 12 -7 18 -4 6 4 9 11 7 15 -3 4 1 8 9 8 8 0 15 -4 15 -9 0 -4 15 -7
34 -5 22 1 32 6 29 15 -3 6 -10 12 -17 12 -6 0 -5 4 3 9 8 5 24 6 35 2 35 -14
103 -23 87 -12 -7 5 -10 14 -7 20 4 6 2 11 -3 11 -6 0 -11 -5 -11 -11 0 -14
-42 -7 -47 7 -4 13 70 25 75 12 2 -4 8 -8 13 -8 6 0 7 5 3 12 -5 8 -2 9 9 5
10 -3 17 -2 17 3 0 6 8 10 18 10 15 0 15 -2 2 -11z m125 -39 c3 -5 1 -10 -4
-10 -6 0 -11 5 -11 10 0 6 2 10 4 10 3 0 8 -4 11 -10z m-1761 -196 c9 -3 13
-10 10 -15 -8 -14 -21 -11 -28 6 -6 17 -4 18 18 9z m1896 -34 c0 -5 -9 -6 -20
-3 -11 3 -20 9 -20 13 0 5 9 6 20 3 11 -3 20 -9 20 -13z m-1868 -19 c6 -10 18
-17 25 -14 9 4 11 0 7 -11 -3 -9 -1 -16 6 -16 6 0 8 -4 5 -10 -12 -20 -32 -9
-54 30 -22 39 -12 58 11 21z m1947 -40 c-7 -2 -15 1 -17 8 -2 6 -10 11 -18 11
-9 0 -12 4 -9 10 4 6 16 3 32 -7 17 -12 21 -19 12 -22z m3207 -90 c-15 -15
-16 -13 -4 19 9 26 13 30 16 16 2 -10 -3 -26 -12 -35z m-5026 17 c0 -6 -13 -7
-32 -3 -49 10 -53 21 -8 17 22 -2 40 -8 40 -14z m2000 2 c0 -5 -4 -10 -10 -10
-5 0 -10 5 -10 10 0 6 5 10 10 10 6 0 10 -4 10 -10z m3046 -57 c-5 -12 -10
-13 -17 -6 -8 8 -7 16 2 26 16 17 24 5 15 -20z m19 -130 c-3 -13 -10 -21 -15
-18 -14 9 -12 52 2 78 13 22 13 21 16 -7 2 -15 1 -39 -3 -53z m-2380 -142 c5
-17 4 -22 -6 -19 -8 3 -15 18 -17 34 -4 33 11 24 23 -15z m1539 27 c-5 -8 -2
-9 10 -5 10 4 15 3 11 -3 -10 -17 -45 -12 -39 5 4 8 10 15 16 15 5 0 6 -5 2
-12z m92 -25 c-2 -2 -7 -4 -10 -4 -3 1 -16 -4 -28 -10 -23 -10 -23 -10 1 10
12 12 27 18 33 15 5 -3 7 -8 4 -11z m-66 -17 c0 -2 -7 -7 -16 -10 -8 -3 -12
-2 -9 4 6 10 25 14 25 6z m76 -4 c-2 -4 -1 -14 5 -22 7 -12 9 -10 9 8 0 22 1
22 16 7 9 -9 15 -17 13 -19 -23 -15 -60 -36 -65 -36 -3 0 -3 7 0 16 3 9 2 12
-5 9 -6 -4 -8 -13 -5 -20 3 -8 -2 -19 -10 -25 -12 -11 -14 -6 -14 30 0 24 3
41 6 37 4 -3 13 0 21 8 15 16 38 21 29 7z m124 -7 c-8 -9 -5 -11 12 -8 31 6
89 -50 80 -76 -3 -8 0 -11 6 -7 7 4 17 -7 25 -26 8 -19 21 -40 28 -48 19 -19
94 -176 103 -215 4 -16 12 -32 17 -36 6 -3 11 -16 12 -27 1 -12 6 -22 12 -22
5 0 1 -7 -9 -15 -13 -10 -15 -15 -6 -15 9 0 8 -6 -6 -22 -10 -12 -14 -18 -7
-15 9 6 12 -13 12 -70 -1 -101 -11 -159 -29 -155 -7 2 -20 0 -29 -3 -13 -5
-12 -9 9 -21 23 -14 23 -14 3 -9 -18 5 -22 3 -17 -9 3 -9 2 -16 -4 -16 -5 0
-9 -11 -8 -24 1 -20 4 -22 16 -13 11 9 11 6 -2 -15 -13 -20 -16 -40 -12 -90 3
-34 5 -75 5 -90 -1 -15 2 -29 7 -32 14 -9 4 -88 -14 -101 -13 -9 -16 -20 -11
-46 5 -24 4 -30 -3 -19 -8 13 -10 12 -10 -3 0 -10 -4 -15 -10 -12 -14 9 -13
-8 2 -23 9 -9 9 -17 -2 -36 -7 -14 -17 -23 -23 -19 -5 3 -4 -4 2 -15 14 -27
14 -55 0 -46 -6 3 -4 -8 5 -24 9 -17 13 -38 10 -46 -10 -25 -25 -7 -18 21 5
17 3 24 -3 20 -15 -9 -22 -66 -9 -64 7 1 12 -22 12 -58 1 -33 3 -62 4 -65 7
-14 5 -60 -3 -60 -5 0 -3 -7 4 -17 13 -15 12 -15 -8 -5 -27 15 -33 15 -33 2 0
-6 10 -14 23 -19 31 -11 33 -72 2 -66 -11 2 -22 4 -25 4 -3 1 1 5 8 9 10 7 8
13 -7 26 -12 11 -21 14 -26 7 -3 -6 1 -11 10 -11 9 0 15 -5 13 -11 -2 -6 -6
-9 -10 -7 -3 2 -16 -6 -28 -17 -12 -11 -25 -19 -28 -17 -4 2 -8 -2 -11 -9 -2
-7 1 -9 8 -5 6 4 11 2 11 -4 0 -6 5 -8 11 -4 9 5 10 -1 5 -20 -5 -21 -3 -27 6
-24 15 5 17 35 6 60 -12 25 3 28 41 8 l35 -18 -31 -6 c-25 -6 -30 -12 -31 -38
0 -17 -5 -35 -10 -40 -13 -13 -44 2 -38 19 4 11 1 13 -14 8 -11 -4 -20 -2 -20
4 0 9 -16 9 -48 2 -2 -1 0 -6 3 -11 5 -8 11 -8 20 0 9 8 15 8 20 0 8 -13 -20
-24 -40 -16 -9 3 -15 18 -15 36 0 27 2 30 19 20 26 -13 38 -13 23 2 -7 7 -8
16 -2 23 11 14 -17 14 -39 1 -10 -7 -11 -4 -2 12 13 25 15 72 2 72 -5 0 -7
-10 -4 -22 5 -19 3 -21 -7 -11 -11 10 -16 9 -27 -5 -13 -16 -13 -16 -11 3 2
11 11 28 20 39 9 10 14 25 10 35 -6 13 -7 12 -10 -6 -4 -25 -22 -32 -22 -9 0
8 -7 22 -16 30 -17 18 -11 36 12 36 11 0 14 -6 9 -22 -5 -20 -4 -21 5 -6 8 13
8 23 0 38 -6 12 -8 30 -5 40 4 11 3 20 -2 20 -4 0 -8 14 -8 30 0 32 14 43 16
13 1 -17 2 -17 6 0 2 9 9 17 14 17 5 0 9 8 8 18 0 10 -3 12 -6 5 -2 -7 -11
-13 -20 -13 -11 0 -12 6 -6 23 4 12 7 37 6 55 -1 22 3 32 13 32 8 0 14 7 14
15 0 8 4 15 10 15 12 0 0 63 -14 72 -11 8 0 12 19 8 6 -1 7 2 3 6 -4 4 2 15
13 25 11 9 16 20 11 23 -6 3 -12 -1 -16 -9 -3 -8 -13 -15 -22 -15 -16 0 -16 1
-1 18 10 10 17 28 17 40 0 12 4 22 8 22 5 0 19 9 32 20 13 11 18 20 12 20 -6
0 -9 7 -6 15 4 8 1 15 -6 15 -7 0 -9 8 -5 23 5 18 4 19 -5 7 -9 -11 -13 -12
-17 -2 -2 6 -9 10 -14 6 -14 -9 -10 4 8 26 22 26 53 29 32 3 -12 -14 -12 -16
0 -12 23 8 25 30 3 36 -11 3 -23 12 -26 20 -5 11 0 13 17 8 l22 -6 -22 13
c-23 14 -23 14 -3 31 11 9 20 22 19 29 0 10 -2 10 -6 1 -2 -7 -9 -13 -14 -13
-6 0 -7 5 -4 10 4 6 -7 13 -24 16 -38 8 -32 23 6 18 16 -2 22 -1 15 2 -10 5
-10 9 -1 20 9 11 7 14 -10 14 -11 0 -21 -4 -21 -10 0 -5 -8 -10 -17 -10 -11 0
-14 3 -7 8 15 10 34 47 34 66 0 10 -9 16 -22 17 -15 0 -18 3 -8 6 8 3 23 15
35 26 l20 19 -22 -7 c-13 -3 -23 -2 -23 3 0 6 -10 8 -22 4 -20 -5 -21 -3 -10
11 7 8 12 21 11 29 -4 24 12 47 29 41 13 -4 14 -3 3 5 -11 8 -10 14 5 38 18
29 18 29 -1 13 -26 -21 -55 -31 -55 -19 0 6 6 10 13 10 6 0 13 11 13 25 1 14
5 37 9 52 5 23 4 25 -10 13 -8 -7 -13 -20 -11 -29 3 -9 -4 -27 -14 -41 -16
-20 -19 -21 -14 -5 4 11 12 26 18 34 9 12 6 13 -19 7 -16 -3 -25 -3 -18 1 15
11 12 45 -7 61 -8 8 -10 11 -3 8 6 -4 14 -2 18 4 3 5 -1 10 -10 10 -10 0 -15
5 -12 14 4 9 -2 12 -19 10 -20 -2 -23 0 -14 11 19 23 48 85 41 85 -4 0 -13
-11 -19 -25 -20 -44 -38 -28 -32 28 1 16 -1 16 -21 -4 -13 -13 -24 -18 -26
-12 -5 14 66 83 73 71 4 -5 1 -15 -5 -21 -6 -6 -11 -16 -11 -21 0 -6 9 0 19
13 13 17 17 35 14 57 -3 20 1 41 12 57 18 28 45 27 45 -2 0 -14 2 -14 11 -1 8
11 9 8 5 -15 -5 -22 -4 -26 4 -15 12 19 13 50 1 50 -5 0 -4 15 2 35 6 20 17
35 25 35 16 0 8 14 -9 16 -5 1 -14 2 -19 3 -17 2 -7 35 15 48 16 10 17 12 3
13 -11 0 -15 6 -11 18 3 13 15 18 39 19 27 1 32 -2 24 -12z m581 -8 c-10 -9
-11 -8 -5 6 3 10 9 15 12 12 3 -3 0 -11 -7 -18z m-774 -34 c-1 -14 -9 -29 -17
-31 -12 -4 -13 -2 -4 9 6 8 10 22 9 32 -2 9 1 17 5 17 5 0 8 -12 7 -27z
m-2892 8 c-6 -5 -21 -11 -35 -15 -21 -5 -20 -3 5 9 35 17 42 18 30 6z m795 -1
c0 -5 -5 -10 -11 -10 -5 0 -7 5 -4 10 3 6 8 10 11 10 2 0 4 -4 4 -10z m2847
-17 c-7 -12 -16 -87 -27 -233 -9 -129 -23 -204 -38 -214 -4 -2 -8 80 -9 182
-1 103 -3 198 -5 212 -2 20 4 29 32 42 37 19 54 23 47 11z m-2836 -26 c-10 -9
-11 -8 -5 6 3 10 9 15 12 12 3 -3 0 -11 -7 -18z m526 1 c-3 -8 -6 -5 -6 6 -1
11 2 17 5 13 3 -3 4 -12 1 -19z m1515 -20 c-5 -21 -5 -21 18 2 21 21 24 22 35
6 7 -9 11 -27 9 -39 -4 -18 -3 -19 4 -4 4 10 12 18 17 17 5 -1 11 3 13 10 2 6
0 9 -5 8 -4 -2 -9 2 -10 7 -1 6 5 9 14 7 8 -2 12 1 8 7 -3 6 -1 11 5 11 6 0 8
-10 4 -25 -6 -25 8 -35 21 -15 14 22 23 8 12 -20 -6 -16 -14 -25 -18 -19 -3 6
-9 0 -12 -12 -4 -13 -9 -20 -13 -16 -10 9 -37 -31 -29 -43 3 -6 -1 -7 -9 -4
-20 8 -20 23 -1 30 29 11 15 31 -25 38 -23 3 -39 10 -36 15 3 5 -1 11 -9 15
-17 6 -21 36 -4 36 5 0 7 5 3 12 -4 6 -3 8 4 5 5 -4 8 -17 4 -29z m-2987 -6
c-3 -3 -11 0 -18 7 -9 10 -8 11 6 5 10 -3 15 -9 12 -12z m3148 -32 c-3 -12 -8
-19 -11 -16 -5 6 5 36 12 36 2 0 2 -9 -1 -20z m-3253 -10 c-8 -5 -22 -10 -30
-10 -13 0 -13 1 0 10 8 5 22 10 30 10 13 0 13 -1 0 -10z m-3 -36 c-3 -3 -12
-4 -19 -1 -8 3 -5 6 6 6 11 1 17 -2 13 -5z m-51 -25 c10 -17 -14 -35 -28 -21
-9 9 -9 12 3 12 12 0 12 2 -1 10 -13 8 -13 10 2 10 9 0 20 -5 24 -11z m3199
-18 c3 -5 -8 -9 -24 -9 -17 1 -28 5 -25 10 7 11 41 10 49 -1z m-15 -60 c0 -17
-27 -30 -57 -28 -24 2 -29 5 -21 15 9 11 13 11 19 0 7 -10 9 -10 9 1 0 7 6 11
15 7 8 -3 15 -1 15 4 0 6 5 10 10 10 6 0 10 -4 10 -9z m-150 -37 c0 -14 -4
-23 -9 -20 -5 3 -7 15 -4 26 7 28 13 25 13 -6z m30 -8 c0 -3 -4 -8 -10 -11 -5
-3 -10 -1 -10 4 0 6 5 11 10 11 6 0 10 -2 10 -4z m-15 -36 c-4 -6 -11 -8 -16
-5 -5 4 -6 -2 -2 -11 4 -11 8 -13 11 -6 5 17 22 15 22 -4 0 -8 4 -12 10 -9 6
4 7 -1 3 -11 -4 -12 -8 -14 -11 -6 -3 10 -7 10 -20 0 -9 -7 -13 -8 -9 -2 3 6
-2 20 -13 31 -10 12 -16 24 -13 27 11 10 45 7 38 -4z m127 -16 c-7 -12 -11
-13 -17 -4 -4 7 -2 16 6 21 18 11 23 4 11 -17z m-32 12 c0 -2 -7 -7 -16 -10
-8 -3 -12 -2 -9 4 6 10 25 14 25 6z m-2732 -38 c-3 -28 1 -33 21 -36 13 -2 28
1 34 7 20 20 27 11 27 -34 0 -38 -3 -45 -19 -45 -17 0 -19 -6 -17 -40 3 -41 3
-41 -28 -34 -17 3 -45 13 -63 21 -18 8 -38 11 -45 7 -7 -4 -10 -4 -6 1 5 5 -8
19 -27 32 -35 23 -44 46 -25 58 6 3 10 15 10 25 0 20 21 36 75 57 54 21 67 17
63 -19z m2752 -18 c0 -5 -4 -10 -10 -10 -5 0 -10 5 -10 10 0 6 5 10 10 10 6 0
10 -4 10 -10z m-860 -27 c0 -20 -3 -24 -11 -16 -7 7 -9 19 -6 27 10 24 17 19
17 -11z m326 -50 c-10 -10 -19 5 -10 18 6 11 8 11 12 0 2 -7 1 -15 -2 -18z
m194 -42 c-2 -29 -70 -68 -70 -40 0 5 4 8 9 5 4 -3 13 5 19 18 9 19 43 33 42
17z m1327 -37 c17 -39 16 -137 -1 -231 -8 -43 -20 -107 -26 -143 -11 -58 -43
-140 -55 -140 -3 0 1 12 9 28 8 15 17 43 20 62 3 20 12 65 20 100 19 77 21
186 4 196 -7 5 -8 3 -3 -6 5 -9 4 -11 -3 -6 -7 4 -12 16 -12 28 0 17 -3 18
-15 8 -12 -10 -16 -8 -24 11 l-10 24 -1 -25 c0 -20 -2 -22 -10 -10 -6 10 -4
22 6 37 8 13 12 23 8 23 -4 0 -1 7 6 15 11 13 10 14 -6 8 -16 -6 -15 -2 6 23
32 39 69 38 87 -2z m-1305 -40 c3 -27 0 -38 -14 -45 -10 -6 -16 -14 -12 -20 8
-13 -15 -39 -35 -39 -10 0 -17 9 -17 25 -2 26 20 35 29 13 4 -10 6 -10 6 0 1
7 -6 15 -14 18 -12 5 -13 10 -4 20 6 8 16 11 23 8 6 -3 2 2 -8 10 -18 14 -15
20 6 17 4 0 10 8 13 19 9 29 22 16 27 -26z m-2302 -56 c0 -19 -16 -5 -17 14
-2 18 0 20 7 8 5 -8 10 -18 10 -22z m3465 -19 c-4 -8 -30 -29 -58 -47 -44 -28
-47 -28 -17 -5 19 15 44 37 55 49 22 23 28 24 20 3z m-685 -43 c0 -3 -4 -8
-10 -11 -5 -3 -10 -1 -10 4 0 6 5 11 10 11 6 0 10 -2 10 -4z m-10 -56 c0 -5
-5 -10 -11 -10 -5 0 -7 5 -4 10 3 6 8 10 11 10 2 0 4 -4 4 -10z m511 -55 c-17
-20 -41 -55 -52 -78 -12 -23 -45 -69 -72 -102 -28 -33 -53 -62 -54 -64 -2 -3
-7 0 -11 5 -4 5 -5 8 -3 7 12 -7 31 23 31 49 0 16 6 31 14 34 8 3 12 12 9 20
-3 8 5 23 17 34 13 11 20 20 16 20 -8 0 23 50 46 73 19 19 33 23 23 7 -11 -18
11 -10 30 10 10 11 22 20 28 20 5 0 -5 -16 -22 -35z m153 -77 c11 -159 34
-242 52 -193 4 8 11 15 17 15 6 0 1 -10 -11 -23 -19 -20 -22 -37 -25 -153 -5
-137 -20 -193 -64 -239 -27 -28 -66 -113 -60 -129 3 -8 -1 -23 -9 -34 -7 -11
-15 -28 -17 -39 -2 -10 -9 -31 -15 -46 -7 -16 -12 -31 -12 -34 0 -14 -84 -201
-102 -226 -17 -24 -22 -26 -36 -15 -12 10 -14 10 -8 1 4 -8 2 -13 -4 -13 -20
0 -49 20 -60 41 -10 18 -9 19 14 13 21 -5 26 -3 26 13 0 10 -5 24 -12 31 -9 9
-8 12 5 12 9 0 16 5 14 12 -1 7 9 13 23 14 14 0 28 2 33 2 4 1 0 18 -8 38 -12
30 -13 40 -3 52 11 13 10 15 -5 9 -15 -5 -16 -4 -7 13 13 24 13 53 0 45 -5 -3
-10 2 -10 12 0 11 -5 24 -12 31 -9 9 -8 12 5 12 9 0 17 5 17 11 0 5 13 27 29
47 16 20 31 48 33 62 2 14 9 24 16 22 6 -1 12 4 12 12 0 7 6 26 14 40 17 33
33 18 38 -36 l3 -37 38 34 c20 18 37 36 37 40 0 4 11 20 24 36 43 50 50 131
33 342 -1 10 -6 16 -12 13 -6 -2 -10 10 -9 31 1 18 -5 40 -13 48 -8 8 -11 15
-7 15 3 0 1 7 -6 15 -10 12 -10 18 1 32 11 13 12 17 1 21 -10 3 -9 9 5 24 13
15 14 19 3 16 -16 -3 -15 34 1 40 5 2 9 12 9 23 0 10 4 19 9 19 4 0 11 -42 15
-92z m-3134 38 c0 -3 -4 -8 -10 -11 -5 -3 -10 -1 -10 4 0 6 5 11 10 11 6 0 10
-2 10 -4z m2510 -110 c0 -3 -4 -8 -10 -11 -5 -3 -10 -1 -10 4 0 6 5 11 10 11
6 0 10 -2 10 -4z m-1973 -111 c-1 -27 -4 -32 -14 -23 -10 8 -10 14 -2 24 6 7
8 18 4 24 -3 5 -2 10 3 10 6 0 10 -16 9 -35z m1983 14 c0 -5 -9 -9 -20 -9 -17
0 -19 2 -8 14 13 14 28 12 28 -5z m0 -32 c0 -7 -9 -18 -21 -25 -14 -9 -19 -20
-16 -33 3 -10 1 -17 -4 -13 -14 9 -10 29 10 51 11 12 17 24 14 27 -4 3 -1 6 5
6 7 0 12 -6 12 -13z m-2600 -42 c0 -5 -5 -3 -10 5 -5 8 -10 20 -10 25 0 6 5 3
10 -5 5 -8 10 -19 10 -25z m-40 -35 c0 -5 -2 -10 -4 -10 -3 0 -8 5 -11 10 -3
6 -1 10 4 10 6 0 11 -4 11 -10z m-66 -46 c3 -8 2 -12 -4 -9 -6 3 -10 10 -10
16 0 14 7 11 14 -7z m2971 -30 c8 -20 15 -47 15 -60 0 -30 -21 -75 -31 -68 -5
3 -9 1 -9 -5 0 -5 5 -13 10 -16 6 -3 10 -11 10 -17 0 -7 -5 -6 -14 1 -8 7 -14
25 -14 42 1 25 3 27 16 16 13 -10 15 -9 9 6 -4 11 -3 16 3 12 11 -7 12 1 4 32
-4 13 -9 21 -13 19 -4 -3 -7 13 -7 35 0 21 1 39 3 39 1 0 10 -16 18 -36z
m-2775 6 c0 -5 -2 -10 -4 -10 -3 0 -8 5 -11 10 -3 6 -1 10 4 10 6 0 11 -4 11
-10z m2460 -67 c0 -5 -5 -15 -10 -23 -8 -12 -10 -11 -10 8 0 12 5 22 10 22 6
0 10 -3 10 -7z m-2640 -7 c0 -3 -4 -8 -10 -11 -5 -3 -10 -1 -10 4 0 6 5 11 10
11 6 0 10 -2 10 -4z m1048 -19 c-4 -21 -1 -23 21 -19 14 3 23 1 19 -3 -4 -4 1
-20 12 -35 11 -16 20 -33 20 -38 0 -6 6 -13 13 -16 6 -3 -4 -5 -23 -3 -20 1
-41 9 -48 19 -7 10 -18 16 -23 13 -5 -4 -9 -1 -9 4 0 6 -10 11 -22 11 -19 0
-20 -2 -8 -10 9 -6 10 -10 3 -10 -22 0 -32 34 -17 55 8 11 18 20 22 20 4 0 7
8 6 18 0 10 7 17 19 17 15 0 18 -5 15 -23z m-1088 -2 c0 -8 -2 -15 -4 -15 -2
0 -6 7 -10 15 -3 8 -1 15 4 15 6 0 10 -7 10 -15z m84 -26 c-9 -15 -24 -10 -18
6 4 8 1 15 -6 15 -6 0 -8 5 -4 12 5 8 11 6 20 -7 7 -10 11 -22 8 -26z m-59
-15 c-9 -9 -19 -13 -23 -10 -3 4 0 11 8 16 24 15 33 11 15 -6z m25 -14 c0 -5
-2 -10 -4 -10 -3 0 -8 5 -11 10 -3 6 -1 10 4 10 6 0 11 -4 11 -10z m2560 -30
c-8 -5 -17 -7 -19 -4 -3 3 1 9 9 14 8 5 17 7 19 4 3 -3 -1 -9 -9 -14z m8 -107
c-6 -7 -16 -13 -22 -13 -6 0 -4 6 5 13 9 7 14 19 12 27 -4 13 -3 13 6 0 7 -10
6 -18 -1 -27z m367 27 c3 -6 -1 -7 -9 -4 -18 7 -21 14 -7 14 6 0 13 -4 16 -10z
m11 -49 c3 -14 10 -36 16 -48 14 -29 6 -38 -22 -23 -17 9 -21 9 -19 -2 3 -25
-1 -71 -6 -66 -10 9 -12 78 -3 78 5 0 6 10 3 22 -6 16 -4 20 8 15 13 -5 13 -2
1 21 -18 35 -18 43 1 36 8 -4 18 -18 21 -33z m-536 19 c0 -5 -5 -10 -11 -10
-5 0 -7 5 -4 10 3 6 8 10 11 10 2 0 4 -4 4 -10z m180 -54 c0 -2 -7 -6 -15 -10
-8 -3 -15 -1 -15 4 0 6 7 10 15 10 8 0 15 -2 15 -4z m-31 -65 c-15 -5 -22 6
-14 19 6 9 10 9 16 -1 5 -8 4 -15 -2 -18z m-109 15 c0 -3 -4 -8 -10 -11 -5 -3
-10 -1 -10 4 0 6 5 11 10 11 6 0 10 -2 10 -4z m136 -82 c-3 -8 -11 -14 -18
-14 -10 0 -10 2 0 9 8 4 13 17 12 27 -3 30 2 42 7 16 3 -13 2 -30 -1 -38z
m-132 37 c3 -5 -2 -15 -12 -22 -15 -12 -16 -12 -5 2 7 9 10 19 6 22 -3 4 -4 7
0 7 3 0 8 -4 11 -9z m97 -24 c-10 -9 -11 -8 -5 6 3 10 9 15 12 12 3 -3 0 -11
-7 -18z m-131 -21 c0 -2 -7 -6 -15 -10 -8 -3 -15 -1 -15 4 0 6 7 10 15 10 8 0
15 -2 15 -4z m-1885 -76 c-3 -5 -11 -10 -16 -10 -6 0 -7 5 -4 10 3 6 11 10 16
10 6 0 7 -4 4 -10z m2305 -6 c0 -8 -5 -12 -10 -9 -6 4 -8 11 -5 16 9 14 15 11
15 -7z m30 -61 c0 -7 -7 -13 -15 -13 -8 0 -15 6 -15 13 0 8 7 14 15 14 8 0 15
-6 15 -14z m-2855 -3 c-3 -5 -11 -10 -16 -10 -6 0 -7 5 -4 10 3 6 11 10 16 10
6 0 7 -4 4 -10z m2630 -9 c-3 -6 -11 -8 -17 -5 -6 4 -5 9 3 15 16 10 23 4 14
-10z m96 9 c10 -6 19 -16 19 -22 0 -6 -6 -6 -16 3 -13 10 -17 10 -24 -1 -11
-18 -24 -6 -17 15 7 18 12 18 38 5z m119 -37 c0 -3 -9 -3 -20 0 -11 3 -20 1
-20 -5 0 -5 -4 -6 -10 -3 -18 11 13 34 33 24 9 -6 17 -12 17 -16z m-173 -5
c-3 -8 -6 -5 -6 6 -1 11 2 17 5 13 3 -3 4 -12 1 -19z m-77 -8 c0 -5 -5 -10
-11 -10 -5 0 -7 5 -4 10 3 6 8 10 11 10 2 0 4 -4 4 -10z m151 -3 c-5 -5 -17
-5 -28 2 -16 9 -15 10 9 9 16 -2 24 -6 19 -11z m205 -34 c-3 -3 -8 2 -12 11
-3 9 -10 13 -15 10 -5 -3 -6 2 -3 11 6 14 9 13 21 -5 8 -12 12 -24 9 -27z
m-2986 15 c0 -16 -3 -19 -11 -11 -6 6 -8 16 -5 22 11 17 16 13 16 -11z m2830
-19 c0 -5 7 -9 16 -9 9 0 12 5 8 13 -4 7 -3 9 2 4 5 -5 9 -16 10 -25 1 -29 16
-52 32 -52 8 0 12 -3 9 -7 -12 -12 -57 20 -57 40 0 15 -5 18 -25 15 -14 -3
-25 -1 -25 3 0 5 -4 9 -10 9 -5 0 -8 -6 -6 -12 1 -7 1 -10 -1 -5 -3 4 -10 4
-16 0 -7 -3 -9 -3 -5 2 4 4 2 15 -5 23 -10 13 -9 15 6 9 9 -3 17 -3 17 2 0 4
11 6 25 3 14 -2 25 -8 25 -13z m74 -20 c-6 -11 -24 -2 -24 11 0 5 7 7 15 4 8
-4 12 -10 9 -15z m36 0 c0 -5 -4 -9 -10 -9 -5 0 -10 7 -10 16 0 8 5 12 10 9 6
-3 10 -10 10 -16z m-2616 -13 c-10 -8 -21 -12 -24 -9 -3 2 4 11 14 19 11 7 22
12 25 9 2 -3 -4 -12 -15 -19z m-304 -11 c0 -9 -6 -12 -16 -8 -13 5 -13 7 -2
14 17 11 18 11 18 -6z m2882 -59 c4 3 5 -2 2 -11 -4 -8 0 -23 7 -32 13 -15 12
-15 -8 -2 -13 8 -23 21 -24 29 0 11 -2 12 -6 2 -3 -7 3 -22 13 -33 9 -10 14
-22 11 -26 -4 -3 -7 -1 -7 6 0 7 -4 9 -10 6 -5 -3 -10 -9 -10 -13 0 -12 56
-42 64 -35 3 3 6 -4 6 -16 0 -20 -1 -21 -16 -7 -21 21 -27 20 -19 -3 3 -11 2
-22 -3 -25 -6 -3 -12 4 -15 15 -3 12 -10 18 -16 14 -6 -3 -11 -2 -11 3 0 5 -7
9 -15 9 -12 0 -11 -5 5 -19 11 -10 20 -24 20 -30 0 -6 8 -17 17 -24 36 -25 5
-23 -35 3 -26 17 -42 35 -43 48 0 11 -3 15 -5 8 -3 -7 -12 -9 -20 -6 -8 3 -14
-1 -14 -8 0 -8 -6 -3 -13 11 -11 21 -11 27 2 37 19 15 41 17 41 3 0 -5 -9 -10
-20 -10 -11 0 -20 -4 -20 -10 0 -11 11 -13 34 -4 9 3 16 14 16 23 0 9 3 12 8
6 4 -6 21 -11 37 -12 27 -3 28 -2 8 7 -28 11 -29 18 -5 37 13 10 13 13 2 11
-8 -2 -18 -7 -21 -11 -8 -12 -40 3 -32 16 4 6 1 7 -7 2 -9 -5 -11 -1 -6 16 3
13 3 18 0 12 -8 -19 -32 -16 -36 5 -6 29 4 62 18 62 8 0 14 -7 14 -15 0 -8 -4
-15 -10 -15 -5 0 -10 -4 -10 -10 0 -5 7 -10 15 -10 8 0 15 5 15 11 0 6 7 9 15
6 8 -4 17 -2 20 3 4 6 1 10 -4 10 -6 0 -11 7 -11 14 0 10 14 3 37 -19 20 -19
40 -32 45 -29z m-2978 32 c14 -20 14 -23 1 -31 -15 -8 -20 -43 -9 -71 3 -9 10
-13 15 -10 18 11 8 -6 -23 -42 -18 -21 -32 -39 -30 -41 1 -2 2 -11 2 -20 0
-14 -2 -15 -9 -4 -7 10 -11 6 -16 -17 -3 -17 -18 -38 -32 -48 -24 -15 -25 -18
-10 -29 12 -9 14 -14 5 -23 -9 -9 -7 -12 8 -13 10 0 13 -3 7 -6 -7 -2 -13 -12
-13 -20 0 -12 3 -13 13 -4 8 6 17 8 20 4 4 -3 7 0 7 7 0 7 3 10 7 7 3 -4 -1
-15 -11 -25 -10 -12 -14 -26 -10 -37 6 -16 9 -15 25 6 l19 24 -6 -35 c-4 -19
-13 -51 -21 -70 -13 -31 -15 -33 -24 -17 -6 10 -8 24 -5 32 3 9 0 12 -8 9 -10
-4 -16 9 -21 43 -10 55 -10 50 -1 85 5 23 4 26 -11 21 -10 -3 -15 -3 -11 2 4
4 3 14 -3 21 -7 8 -7 24 -1 47 6 20 6 40 1 50 -6 10 -5 18 2 23 8 5 9 3 4 -6
-5 -8 -4 -11 3 -6 6 3 14 26 18 51 3 24 12 50 20 56 8 6 14 17 14 25 0 27 23
62 36 57 10 -4 12 0 8 11 -9 25 22 20 40 -6z m303 14 c9 -6 7 -11 -7 -20 -11
-7 -20 -8 -20 -2 0 5 -8 7 -17 3 -15 -5 -14 -3 2 10 23 19 26 19 42 9z m2487
-14 c-5 -8 0 -7 11 2 17 14 18 13 12 -2 -3 -10 -2 -20 3 -23 6 -4 5 -14 -3
-25 -15 -26 -27 -26 -20 0 4 15 0 20 -16 20 -19 0 -20 2 -9 20 7 11 16 20 21
20 4 0 5 -6 1 -12z m-64 -45 c-11 -17 -11 -17 -6 0 3 10 7 26 7 35 1 15 2 15
6 0 2 -10 -1 -25 -7 -35z m-3570 27 c0 -5 -5 -10 -11 -10 -5 0 -7 5 -4 10 3 6
8 10 11 10 2 0 4 -4 4 -10z m1104 -12 c-3 -4 -12 -4 -21 -1 -10 4 -14 2 -9 -5
7 -11 -11 -28 -21 -18 -10 10 18 35 37 33 10 -1 17 -5 14 -9z m36 -6 c0 -4 -9
-13 -20 -20 -23 -14 -26 -8 -7 13 13 16 27 19 27 7z m2143 -7 c-3 -9 -8 -14
-10 -11 -3 3 -2 9 2 15 9 16 15 13 8 -4z m-3306 -15 c-27 -22 -37 -25 -37 -12
0 5 10 14 23 20 35 17 42 14 14 -8z m3643 -2 c0 -5 -4 -7 -9 -4 -5 4 -12 0
-14 -6 -3 -7 -6 -3 -6 9 -1 16 3 21 14 17 8 -4 15 -10 15 -16z m-2950 -3 c0
-8 -4 -15 -10 -15 -5 0 -7 7 -4 15 4 8 8 15 10 15 2 0 4 -7 4 -15z m420 -5 c0
-5 -5 -10 -11 -10 -5 0 -7 5 -4 10 3 6 8 10 11 10 2 0 4 -4 4 -10z m2606 -7
c12 -12 13 -18 4 -21 -7 -3 -16 1 -19 7 -5 7 -15 9 -26 4 -17 -6 -18 -5 -5 10
19 21 25 21 46 0z m-3053 -33 c-3 -11 -7 -20 -9 -20 -2 0 -4 9 -4 20 0 11 4
20 9 20 5 0 7 -9 4 -20z m457 6 c0 -2 -7 -6 -15 -10 -8 -3 -15 -1 -15 4 0 6 7
10 15 10 8 0 15 -2 15 -4z m2570 -5 c0 -6 -4 -13 -10 -16 -5 -3 -10 1 -10 9 0
9 5 16 10 16 6 0 10 -4 10 -9z m-2528 -23 c-7 -7 -12 -8 -12 -2 0 6 3 14 7 17
3 4 9 5 12 2 2 -3 -1 -11 -7 -17z m2498 1 c0 -5 -4 -9 -10 -9 -5 0 -10 7 -10
16 0 8 5 12 10 9 6 -3 10 -10 10 -16z m-2387 -24 c-3 -8 -1 -15 5 -15 6 0 12
5 14 10 6 20 48 20 60 0 11 -17 13 -17 25 -2 9 12 12 13 13 3 0 -8 6 -11 17
-7 10 4 14 4 10 0 -4 -4 -2 -12 3 -19 12 -15 -15 -55 -37 -55 -9 0 -13 -3 -10
-6 13 -14 -38 -46 -65 -42 -16 3 -28 1 -28 -3 0 -9 -57 -29 -64 -22 -3 3 -12
1 -19 -6 -11 -8 -23 -8 -51 4 -20 8 -36 20 -36 25 0 12 40 54 40 43 1 -11 30
29 30 40 0 4 -5 5 -12 1 -7 -5 -8 -3 -4 5 5 7 11 10 14 7 3 -3 14 2 24 11 18
16 18 16 12 0 -11 -29 3 -19 26 18 21 33 45 41 33 10z m230 6 c4 -1 7 -7 7
-15 0 -8 6 -17 13 -20 9 -5 9 -7 -1 -12 -6 -3 -10 -9 -8 -13 3 -4 -4 -7 -15
-7 -12 0 -19 8 -20 21 -1 11 -5 4 -9 -15 -4 -19 -8 -27 -9 -17 0 10 -4 16 -8
14 -6 -4 -9 63 -4 69 1 0 11 0 24 -2 12 -1 25 -3 30 -3z m68 -1 c12 -7 19 -21
18 -38 0 -26 -1 -26 -9 -4 -5 12 -16 22 -25 22 -8 0 -15 7 -15 15 0 18 5 18
31 5z m-1 -40 c0 -5 -5 -9 -11 -7 -6 1 -14 -4 -16 -11 -3 -8 1 -10 14 -5 23 8
15 -1 -14 -16 -21 -11 -22 -10 -12 19 10 28 39 43 39 20z m80 -10 c0 -5 -4
-10 -10 -10 -5 0 -10 5 -10 10 0 6 5 10 10 10 6 0 10 -4 10 -10z m2125 -24
c16 -18 17 -39 2 -33 -8 3 -20 1 -28 -5 -12 -8 -12 -9 1 -5 16 4 27 -5 53 -45
16 -26 14 -63 -4 -52 -5 3 -9 1 -9 -5 0 -5 5 -13 11 -17 6 -3 9 -14 6 -24 -3
-11 1 -21 9 -24 8 -3 14 -1 14 5 0 6 4 8 9 5 5 -3 15 2 22 11 12 15 12 16 -3
10 -9 -3 -22 1 -28 9 -8 9 -9 14 -2 14 6 0 13 -6 16 -12 3 -7 3 10 1 37 -4 38
-3 45 5 28 11 -27 22 -31 13 -5 -3 9 -3 14 1 10 5 -4 10 -32 11 -63 3 -46 1
-56 -11 -51 -8 3 -14 1 -14 -5 0 -6 -5 -7 -11 -3 -8 4 -9 -3 -4 -24 4 -19 2
-33 -6 -38 -8 -4 -10 -3 -5 4 4 6 4 23 0 37 -5 19 -11 24 -29 21 -13 -2 -32 2
-44 10 -19 14 -25 11 -22 -8 2 -15 -40 -30 -53 -19 -9 7 -16 7 -24 -1 -9 -9
-15 -9 -24 0 -9 9 -9 15 0 24 9 9 12 9 12 1 0 -13 39 -13 41 -1 1 4 2 14 3 21
1 6 7 11 13 10 7 -2 8 9 3 32 -4 19 -5 36 -2 39 3 3 5 34 4 68 0 36 4 66 11
70 11 7 44 -7 62 -26z m103 -3 c0 -21 -3 -31 -5 -23 -3 8 -13 21 -22 29 -15
13 -15 13 2 8 11 -4 17 -1 17 8 0 8 2 15 4 15 2 0 4 -17 4 -37z m-188 3 c0 -2
-7 -7 -16 -10 -8 -3 -12 -2 -9 4 6 10 25 14 25 6z m-2166 -58 c-3 -5 0 -8 5
-8 6 0 11 11 11 25 0 14 4 25 8 25 5 0 8 -17 6 -37 -2 -21 -3 -46 -3 -55 -1
-28 -25 -21 -51 14 -22 30 -22 32 -5 45 11 7 14 13 9 13 -6 0 -15 -5 -22 -12
-7 -7 -12 -8 -12 -4 0 5 8 14 17 21 14 11 19 10 29 -3 7 -9 10 -20 8 -24z
m2296 16 c0 -8 -4 -12 -10 -9 -5 3 -10 13 -10 21 0 8 5 12 10 9 6 -3 10 -13
10 -21z m-130 -11 c0 -16 -5 -35 -11 -43 -9 -13 -10 -13 -6 0 2 8 0 23 -5 33
-9 18 -3 37 13 37 5 0 9 -12 9 -27z m-2202 -48 c-3 -3 -13 1 -21 10 -14 14
-16 13 -21 -3 -5 -14 -14 -17 -46 -14 -38 4 -58 22 -24 22 9 0 12 5 8 11 -5 8
-2 9 11 2 20 -12 55 -6 55 9 0 5 10 0 22 -12 12 -11 19 -22 16 -25z m112 20
c0 -8 -4 -15 -9 -15 -5 0 -11 7 -15 15 -3 9 0 15 9 15 8 0 15 -7 15 -15z
m2042 -6 c-13 -11 -28 -19 -35 -16 -7 2 2 11 18 20 40 22 43 21 17 -4z m48
-67 c0 -5 -7 -17 -16 -28 -10 -12 -14 -14 -11 -4 2 8 0 25 -4 38 -8 20 -7 21
11 12 11 -6 20 -14 20 -18z m-80 8 c8 -5 10 -10 3 -10 -6 0 -9 -10 -7 -22 2
-13 2 -17 -2 -10 -3 6 -10 10 -15 6 -5 -3 -9 -1 -9 5 0 5 5 13 11 17 8 4 7 9
-2 15 -8 5 -9 9 -4 9 6 0 17 -5 25 -10z m33 -35 c-22 -17 -30 -11 -13 10 7 8
17 12 22 9 5 -3 1 -12 -9 -19z m-96 -17 c-3 -8 -6 -5 -6 6 -1 11 2 17 5 13 3
-3 4 -12 1 -19z m20 -20 c-3 -7 -5 -2 -5 12 0 14 2 19 5 13 2 -7 2 -19 0 -25z
m40 -30 c-3 -8 -6 -5 -6 6 -1 11 2 17 5 13 3 -3 4 -12 1 -19z m148 12 c-3 -5
-1 -10 4 -10 6 0 11 -8 11 -17 1 -13 6 -9 16 11 13 22 18 26 25 15 13 -20 11
-29 -4 -23 -8 3 -14 -2 -14 -10 0 -8 4 -13 9 -10 4 3 8 -4 8 -16 0 -12 5 -18
10 -15 6 3 10 0 10 -7 0 -7 -9 -19 -21 -26 -14 -9 -18 -19 -14 -35 7 -22 7
-22 -8 -2 -9 11 -12 21 -7 23 5 2 6 10 3 18 -3 7 -10 11 -16 7 -6 -3 -7 -1 -3
5 4 6 3 20 -2 29 -17 32 -23 73 -12 73 6 0 8 -4 5 -10z m-96 -44 c-12 -14 -27
-22 -32 -19 -6 4 -8 0 -4 -10 7 -19 -1 -21 -22 -8 -7 5 -11 13 -7 19 3 6 2 13
-4 17 -5 3 -10 1 -10 -5 0 -6 -4 -8 -10 -5 -5 3 -10 16 -10 28 0 18 2 19 10 7
8 -12 10 -12 10 -1 0 11 3 11 15 1 8 -6 19 -9 24 -6 5 4 15 -2 21 -11 7 -11
10 -13 7 -3 -4 18 15 41 26 30 5 -4 -1 -19 -14 -34z m206 -25 c-4 -23 -10 -39
-15 -36 -7 4 -4 42 6 74 9 29 16 1 9 -38z m-317 14 c-3 -3 -9 2 -12 12 -6 14
-5 15 5 6 7 -7 10 -15 7 -18z m192 15 c0 -5 -4 -10 -10 -10 -5 0 -10 5 -10 10
0 6 5 10 10 10 6 0 10 -4 10 -10z m-40 -36 c0 -8 5 -14 10 -14 6 0 10 -8 10
-18 0 -10 5 -23 12 -30 7 -7 8 -12 2 -12 -5 0 -15 5 -21 11 -7 7 -9 2 -6 -18
3 -19 2 -24 -5 -15 -7 11 -11 9 -15 -8 -5 -20 -31 -26 -27 -6 1 5 -6 13 -15
19 -22 12 -76 -37 -68 -62 4 -13 3 -14 -5 -1 -6 8 -8 18 -6 22 3 4 0 8 -6 8
-7 0 -5 7 4 16 9 8 14 20 11 25 -4 5 4 8 17 6 15 -1 23 4 26 18 6 33 22 42 22
13 0 -14 7 -28 15 -31 11 -5 12 -1 6 16 -7 20 -7 31 -3 62 3 17 42 16 42 -1z
m-110 -41 c0 -11 -3 -11 -13 -2 -7 7 -13 21 -13 31 0 18 1 18 13 2 7 -10 13
-24 13 -31z m258 -1 c10 -7 8 -27 -8 -98 -40 -176 -76 -270 -154 -409 -61
-111 -174 -258 -189 -248 -6 3 -7 1 -3 -5 3 -6 -15 -35 -41 -64 -26 -29 -44
-45 -40 -35 3 9 2 17 -4 17 -6 0 -7 5 -4 11 4 6 14 8 22 5 11 -5 13 -1 7 17
-4 12 -7 28 -7 35 0 20 -16 14 -43 -15 -17 -20 -22 -23 -17 -9 4 13 3 17 -5
12 -16 -10 -26 38 -13 61 11 17 11 17 10 -2 -3 -25 10 -55 23 -55 6 0 7 11 4
25 -4 14 -2 25 2 25 5 0 8 11 7 25 -2 15 1 23 7 19 6 -4 8 2 3 17 -4 13 -4 21
0 17 12 -11 35 11 28 28 -3 8 0 14 6 14 6 0 11 -4 11 -10 0 -5 7 -10 16 -10
13 0 14 3 5 14 -9 11 -9 15 1 20 7 3 3 3 -9 1 -25 -7 -40 10 -18 19 9 3 15 19
16 38 1 32 1 32 10 8 8 -23 8 -22 6 7 -2 21 0 30 7 25 18 -11 45 -12 51 -2 3
6 -3 10 -15 10 -12 0 -18 4 -15 10 4 6 12 10 18 9 40 -5 49 1 43 29 -4 15 -3
23 1 17 15 -18 33 -15 33 6 0 11 5 17 10 14 6 -4 10 11 11 37 1 41 2 42 12 16
14 -35 25 -36 25 -3 0 13 -4 22 -9 19 -5 -3 -9 -3 -9 0 0 2 -3 13 -7 23 -6 16
-5 16 10 4 15 -12 17 -11 17 3 0 15 4 15 30 -4 17 -12 30 -18 30 -13 0 4 -8
13 -19 20 -10 6 -21 21 -24 33 -6 22 -6 22 20 -1 l26 -24 -12 23 c-13 25 -4
53 10 31 6 -11 9 -10 15 4 3 9 2 23 -3 30 -6 6 -10 37 -10 67 -1 45 0 49 5 20
4 -19 13 -36 20 -38 10 -2 10 2 2 18 -6 12 -7 20 -1 20 5 0 14 -12 19 -27 6
-16 11 -21 11 -12 1 8 -6 24 -14 35 -8 10 -15 27 -15 37 0 10 -4 16 -9 13 -14
-9 -1 32 14 44 10 8 15 6 20 -10 4 -11 11 -17 17 -14 7 5 9 1 5 -9 -3 -9 -2
-19 3 -22 6 -4 11 4 12 17 1 13 2 30 4 38 1 8 2 21 3 28 1 14 10 15 29 4z
m-241 -24 c-3 -8 -6 -5 -6 6 -1 11 2 17 5 13 3 -3 4 -12 1 -19z m-44 -8 c-3
-11 -7 -20 -9 -20 -2 0 -4 9 -4 20 0 11 4 20 9 20 5 0 7 -9 4 -20z m-25 -31
c-3 -8 -7 -3 -11 10 -4 17 -3 21 5 13 5 -5 8 -16 6 -23z m109 -30 c6 -6 9 -19
5 -28 -7 -19 -34 -41 -43 -35 -4 2 -10 -4 -14 -14 -6 -16 -7 -16 -17 1 -5 10
-7 21 -4 24 3 4 6 1 6 -7 0 -10 3 -10 15 0 8 7 15 9 15 4 0 -5 5 -1 11 9 7 13
7 22 0 31 -18 22 6 35 26 15z m-90 -61 c-3 -8 -6 -5 -6 6 -1 11 2 17 5 13 3
-3 4 -12 1 -19z m95 -32 c7 4 8 2 4 -4 -11 -18 -26 -14 -25 6 0 10 3 12 6 4 2
-6 10 -9 15 -6z m-112 -28 c0 -4 -4 -8 -9 -8 -6 0 -12 4 -15 8 -3 5 1 9 9 9 8
0 15 -4 15 -9z m77 -50 c-11 -7 -3 -12 16 -9 4 0 7 -3 7 -9 0 -5 -6 -10 -14
-10 -16 0 -29 27 -20 41 3 5 0 9 -6 9 -6 0 -8 5 -4 12 5 7 11 5 21 -7 10 -15
10 -20 0 -27z m-84 -1 c3 -8 -1 -14 -8 -14 -7 0 -11 6 -8 14 3 7 6 13 8 13 2
0 5 -6 8 -13z m7 -47 c0 -5 -2 -10 -4 -10 -3 0 -8 5 -11 10 -3 6 -1 10 4 10 6
0 11 -4 11 -10z m30 -90 c0 -5 -2 -10 -4 -10 -3 0 -8 5 -11 10 -3 6 -1 10 4
10 6 0 11 -4 11 -10z m-3203 -52 c-3 -8 -6 -5 -6 6 -1 11 2 17 5 13 3 -3 4
-12 1 -19z m39 -68 c2 -30 -9 -39 -21 -20 -4 6 -2 17 5 25 7 9 8 15 0 20 -5 3
-10 11 -10 18 0 25 25 -15 26 -43z m3054 30 c0 -5 -5 -10 -11 -10 -5 0 -7 5
-4 10 3 6 8 10 11 10 2 0 4 -4 4 -10z m-2980 -48 c0 -5 -7 -17 -15 -28 -15
-19 -16 -19 -13 1 3 23 28 47 28 27z m2917 -14 c-3 -8 -6 -5 -6 6 -1 11 2 17
5 13 3 -3 4 -12 1 -19z m50 -10 c-3 -8 -6 -5 -6 6 -1 11 2 17 5 13 3 -3 4 -12
1 -19z m-23 -3 c3 -8 1 -15 -4 -15 -6 0 -10 7 -10 15 0 8 2 15 4 15 2 0 6 -7
10 -15z m-2987 -37 c-3 -8 -6 -5 -6 6 -1 11 2 17 5 13 3 -3 4 -12 1 -19z
m2993 2 c0 -5 -4 -10 -10 -10 -5 0 -10 5 -10 10 0 6 5 10 10 10 6 0 10 -4 10
-10z m-52 -70 c-1 -16 -5 -30 -10 -30 -9 0 -10 7 -2 38 9 30 13 28 12 -8z
m-1845 -17 c-7 -3 -13 -11 -13 -19 0 -8 -9 -14 -21 -14 -12 0 -17 4 -14 11 4
6 10 8 13 5 3 -3 12 3 20 15 8 11 17 17 21 13 3 -4 0 -9 -6 -11z m222 -14 c-4
-12 -15 -29 -25 -39 -16 -16 -19 -17 -25 -3 -3 10 4 26 16 40 28 29 42 30 34
2z m1555 17 c0 -3 -4 -8 -10 -11 -5 -3 -10 -1 -10 4 0 6 5 11 10 11 6 0 10 -2
10 -4z m-1846 -63 c-10 -8 -28 -19 -39 -24 -16 -8 -15 -6 4 10 13 12 20 21 17
21 -4 0 -2 10 5 22 11 20 12 20 22 3 7 -14 6 -21 -9 -32z m310 28 c3 -5 -1
-14 -8 -20 -12 -10 -13 -8 -9 8 6 23 9 25 17 12z m1516 -26 c0 -38 -16 -37
-17 1 -1 18 3 31 8 28 5 -3 9 -16 9 -29z m-1776 -4 c3 -5 -1 -14 -8 -20 -12
-10 -14 -9 -11 6 2 10 4 19 4 21 2 5 10 2 15 -7z m86 -10 c0 -6 -4 -13 -10
-16 -5 -3 -10 -1 -10 6 0 7 -7 4 -15 -7 -14 -18 -14 -18 -8 4 5 21 43 33 43
13z m50 -29 c0 -11 -7 -18 -20 -18 -24 0 -24 0 -4 20 20 20 24 20 24 -2z
m1700 -28 c0 -19 -20 -28 -32 -16 -8 8 -8 15 1 26 7 8 10 21 6 28 -4 7 1 4 9
-6 9 -11 16 -25 16 -32z m-1952 -2 c-15 -19 -33 -29 -53 -30 -27 -1 -28 1 -13
12 10 7 15 15 12 18 -2 3 2 8 9 11 11 4 13 0 9 -16 -5 -19 -3 -19 24 6 37 35
41 34 12 -1z m2012 18 c0 -5 -5 -10 -11 -10 -5 0 -7 5 -4 10 3 6 8 10 11 10 2
0 4 -4 4 -10z m-1890 -20 c0 -10 -31 -23 -38 -15 -8 7 19 35 29 29 5 -3 9 -9
9 -14z m-194 -9 c-8 -12 -46 -21 -46 -11 0 9 18 18 38 19 7 1 11 -3 8 -8z
m1972 -16 c-3 -3 -9 2 -12 12 -6 14 -5 15 5 6 7 -7 10 -15 7 -18z m-1860 -7
c-16 -24 -78 -63 -78 -49 0 5 10 16 23 25 12 9 16 14 8 10 -9 -5 -12 -3 -7 5
4 6 11 9 15 6 5 -2 17 2 27 10 26 20 29 18 12 -7z m-453 -8 c18 -7 18 -8 -7
-15 -16 -4 -26 -11 -23 -15 3 -5 -1 -11 -7 -14 -7 -3 2 -5 20 -3 17 2 32 2 32
1 0 -1 -3 -9 -6 -18 -5 -12 -10 -13 -32 -3 -33 14 -45 29 -31 38 6 3 10 9 10
13 -4 28 6 32 44 16z m344 -3 c12 -15 -3 -37 -26 -37 -7 0 -13 -5 -13 -11 0
-5 5 -7 12 -3 7 4 8 3 4 -4 -4 -6 -14 -8 -22 -5 -13 5 -15 1 -10 -14 4 -12 1
-25 -9 -33 -8 -7 -15 -9 -15 -4 0 4 -15 -5 -32 -22 -30 -26 -31 -26 -9 -2 13
14 20 31 17 36 -5 9 43 52 88 79 15 9 17 12 6 13 -9 0 -20 -4 -25 -9 -6 -5
-20 -12 -32 -16 -34 -10 -19 21 15 34 37 13 38 13 51 -2z m1955 -12 c3 -9 0
-12 -9 -9 -7 3 -16 12 -19 19 -3 9 0 12 9 9 7 -3 16 -12 19 -19z m-2267 -11
c-3 -3 -12 -4 -19 -1 -8 3 -5 6 6 6 11 1 17 -2 13 -5z m2373 3 c0 -2 -9 -12
-19 -21 -19 -17 -19 -17 -14 3 3 12 12 21 19 21 8 0 14 -2 14 -3z m-143 -26
c0 -11 -5 -18 -9 -15 -4 3 -5 11 -1 19 7 21 12 19 10 -4z m-2187 -1 c0 -5 -4
-10 -9 -10 -5 0 -18 -3 -28 -6 -16 -5 -16 -4 1 10 23 18 36 20 36 6z m87 4
c-4 -4 -17 -12 -29 -19 -13 -6 -22 -17 -20 -24 1 -7 -2 -10 -8 -6 -19 12 -10
33 18 43 32 12 48 14 39 6z m33 -9 c0 -2 -10 -10 -22 -16 -21 -11 -22 -11 -9
4 13 16 31 23 31 12z m160 -5 c0 -5 -5 -10 -11 -10 -5 0 -7 5 -4 10 3 6 8 10
11 10 2 0 4 -4 4 -10z m-290 -30 c-24 -21 -50 -27 -50 -12 0 10 38 30 59 31 9
1 5 -7 -9 -19z m2274 8 c-13 -24 -37 -48 -47 -48 -6 0 0 8 11 19 12 10 22 23
22 30 0 6 5 11 11 11 5 0 7 -6 3 -12z m-2180 -43 c-10 -8 -26 -14 -34 -14 -9
0 -4 6 10 14 33 19 49 19 24 0z m-107 -11 c-16 -9 -31 -13 -34 -10 -3 3 5 10
18 15 37 15 47 12 16 -5z m198 -44 c-3 -5 -12 -10 -18 -10 -7 0 -6 4 3 10 19
12 23 12 15 0z m117 -62 c-7 -7 -12 -8 -12 -2 0 14 12 26 19 19 2 -3 -1 -11
-7 -17z m-23 -81 c-2 -1 -13 -9 -24 -17 -19 -14 -19 -14 -6 3 7 9 18 17 24 17
6 0 8 -1 6 -3z m31 -11 c0 -3 -4 -8 -10 -11 -5 -3 -10 -1 -10 4 0 6 5 11 10
11 6 0 10 -2 10 -4z m140 -196 c0 -5 -4 -10 -10 -10 -5 0 -10 5 -10 10 0 6 5
10 10 10 6 0 10 -4 10 -10z m31 -13 c-6 -8 -9 -17 -6 -21 3 -3 0 -2 -6 3 -12
10 -4 31 13 31 7 0 7 -4 -1 -13z m29 -7 c0 -5 -5 -10 -11 -10 -5 0 -7 5 -4 10
3 6 8 10 11 10 2 0 4 -4 4 -10z m-65 -18 c-3 -3 -11 0 -18 7 -9 10 -8 11 6 5
10 -3 15 -9 12 -12z m249 -198 c3 -8 2 -12 -4 -9 -6 3 -10 10 -10 16 0 14 7
11 14 -7z m41 6 c-3 -5 -12 -10 -18 -10 -7 0 -6 4 3 10 19 12 23 12 15 0z
m-245 -56 c0 -8 -5 -12 -10 -9 -6 4 -8 11 -5 16 9 14 15 11 15 -7z m35 -4 c3
-5 -1 -10 -9 -10 -9 0 -16 5 -16 10 0 6 4 10 9 10 6 0 13 -4 16 -10z"/>
<path d="M3920 7831 c-7 -15 -7 -21 0 -21 12 0 25 28 17 36 -3 3 -10 -4 -17
-15z"/>
<path d="M3601 7749 c-13 -5 -34 -10 -47 -11 -12 -1 -20 -6 -18 -10 3 -4 -2
-8 -11 -8 -9 0 -14 -4 -11 -8 2 -4 -6 -9 -19 -10 -19 -1 -23 2 -18 16 4 13 2
13 -10 -3 -13 -16 -13 -22 -3 -30 13 -11 17 -65 4 -65 -12 0 -77 -74 -78 -88
0 -7 -4 -11 -8 -8 -4 3 -16 -10 -26 -29 -23 -42 -40 -49 -77 -31 -27 13 -27
13 -16 -5 8 -14 9 -22 1 -27 -6 -4 -13 -15 -17 -25 -4 -10 -11 -16 -16 -12 -6
3 -15 -13 -22 -35 -7 -22 -16 -40 -20 -40 -4 0 -7 -12 -5 -27 1 -16 -3 -32 -9
-38 -6 -5 -17 -23 -23 -40 -11 -28 -11 -28 3 -11 15 20 15 20 15 0 1 -14 6
-10 23 17 12 20 45 62 72 92 28 31 70 84 95 117 25 34 91 104 147 156 120 111
149 147 130 162 -7 6 -21 6 -36 1z m-207 -254 c-4 -8 -10 -15 -14 -15 -5 0
-12 -9 -15 -20 -4 -11 -11 -18 -16 -14 -5 3 1 18 13 34 25 31 41 39 32 15z
m-207 -260 c0 -8 -4 -15 -9 -15 -10 0 -11 14 -1 23 9 10 10 9 10 -8z"/>
<path d="M2965 7600 c-3 -6 4 -10 17 -11 22 0 22 -1 3 -9 -18 -7 -17 -8 9 -15
l29 -8 -21 -18 c-12 -9 -23 -27 -25 -40 -3 -17 -14 -26 -42 -33 -21 -6 -40
-17 -43 -24 -2 -8 2 -10 14 -5 18 7 18 7 -3 -44 -3 -7 2 -13 10 -13 18 0 12
-36 -11 -62 -15 -18 -6 -23 22 -12 9 3 16 12 16 19 0 15 38 42 74 51 24 6 26
4 28 -27 0 -19 1 -39 1 -45 0 -11 26 -16 28 -5 0 3 2 13 3 21 12 56 15 117 8
128 -5 7 -6 31 -2 53 8 44 2 56 -51 87 -40 24 -55 27 -64 12z"/>
<path d="M2690 7510 c-25 -22 -51 -40 -58 -40 -19 0 -54 -22 -75 -47 -10 -13
-23 -23 -28 -23 -15 0 -39 -26 -32 -34 4 -3 14 -6 24 -6 44 0 30 -54 -30 -120
-43 -46 -52 -66 -26 -56 10 3 15 -1 15 -12 0 -38 21 -42 59 -11 38 31 57 36
64 17 2 -7 4 3 5 21 0 19 -2 40 -6 45 -4 6 -8 31 -9 54 -3 35 2 50 22 74 14
16 22 35 19 40 -4 7 -2 8 5 4 6 -4 24 6 42 24 23 22 44 32 78 37 50 7 61 15
54 43 -6 21 -36 36 -41 21 -2 -6 -8 -11 -13 -11 -6 0 -7 5 -4 10 15 24 -24 6
-65 -30z m-110 -206 c0 -8 -4 -12 -10 -9 -5 3 -10 13 -10 21 0 8 5 12 10 9 6
-3 10 -13 10 -21z"/>
<path d="M2789 7455 c-1 -5 -1 -14 0 -18 1 -4 -3 -17 -9 -27 -7 -13 -7 -20 -1
-20 6 0 8 -7 5 -15 -3 -8 0 -17 8 -20 11 -5 17 -66 9 -107 0 -4 -19 -25 -41
-48 l-39 -40 11 -81 c7 -49 17 -83 25 -86 7 -3 13 -12 13 -20 0 -9 6 -13 14
-10 15 6 15 -20 1 -43 -3 -6 -1 -10 5 -10 6 0 8 -5 5 -10 -3 -6 1 -13 9 -16
14 -5 13 -9 -1 -31 -15 -22 -15 -26 0 -40 14 -15 18 -12 46 33 36 56 59 73 72
53 7 -12 9 -12 9 0 0 20 16 2 25 -28 4 -15 3 -21 -3 -17 -14 8 -22 -45 -11
-66 8 -15 5 -18 -13 -20 -13 0 -36 -2 -53 -4 -16 -1 -39 4 -51 11 -19 12 -21
12 -16 -11 2 -14 0 -24 -7 -24 -7 0 -5 -12 6 -32 9 -18 18 -39 19 -47 13 -76
29 -74 79 10 42 69 81 99 136 106 52 7 56 17 16 42 -29 19 -30 21 -9 21 22 0
22 1 6 25 -21 33 -30 32 -53 -6 -22 -36 -29 -29 -40 39 -12 68 -32 142 -49
181 -8 19 -14 46 -14 60 0 14 -6 37 -13 51 -7 14 -21 72 -30 130 -10 58 -21
109 -26 115 -6 5 -9 3 -9 -5 -1 -9 -7 -4 -15 10 -8 14 -15 21 -16 15z"/>
<path d="M2850 7415 c0 -5 5 -17 10 -25 5 -8 10 -10 10 -5 0 6 -5 17 -10 25
-5 8 -10 11 -10 5z"/>
<path d="M3390 7385 c7 -8 19 -15 27 -15 13 0 13 3 3 15 -7 8 -19 15 -27 15
-13 0 -13 -3 -3 -15z"/>
<path d="M3350 7340 c8 -5 22 -9 30 -9 10 0 8 3 -5 9 -27 12 -43 12 -25 0z"/>
<path d="M3328 7323 c7 -3 16 -2 19 1 4 3 -2 6 -13 5 -11 0 -14 -3 -6 -6z"/>
<path d="M3010 7271 c-14 -5 -38 -7 -53 -5 -32 3 -35 -11 -6 -26 20 -11 20
-12 2 -27 -10 -8 -12 -11 -5 -8 8 4 12 2 11 -6 -5 -22 11 -70 20 -64 5 2 12
-2 15 -11 10 -26 7 -34 -11 -28 -15 5 -15 4 -3 -4 9 -7 13 -24 11 -50 -2 -34
1 -40 20 -45 12 -3 26 -4 30 -1 16 9 121 176 115 181 -3 4 -6 3 -6 -2 0 -4 -8
-1 -17 6 -16 13 -17 12 -4 -4 20 -25 7 -32 -23 -12 -28 18 -37 39 -38 85 -1
32 -10 35 -58 21z"/>
<path d="M2901 7220 c0 -8 4 -22 9 -30 12 -18 12 -2 0 25 -6 13 -9 15 -9 5z"/>
<path d="M2582 7140 c0 -14 2 -19 5 -12 2 6 2 18 0 25 -3 6 -5 1 -5 -13z"/>
<path d="M2617 7116 c-3 -8 -2 -18 3 -21 13 -8 20 9 11 24 -6 10 -10 9 -14 -3z"/>
<path d="M2597 7084 c-7 -12 13 -75 32 -97 7 -9 10 -21 6 -27 -11 -19 4 -62
20 -56 9 3 12 0 9 -9 -3 -7 4 -23 15 -34 25 -25 31 -26 31 -6 0 8 -4 15 -8 15
-5 0 -14 24 -21 53 -32 128 -43 158 -56 153 -8 -3 -15 0 -18 7 -2 7 -6 7 -10
1z m40 -72 c3 -21 1 -24 -7 -12 -11 17 -14 57 -3 46 4 -4 9 -19 10 -34z"/>
<path d="M2930 7081 c0 -5 5 -13 10 -16 6 -3 10 -2 10 4 0 5 -4 13 -10 16 -5
3 -10 2 -10 -4z"/>
<path d="M3340 7050 c0 -13 18 -22 24 -11 3 5 -1 11 -9 15 -8 3 -15 1 -15 -4z"/>
<path d="M2950 7030 c0 -8 5 -22 10 -30 9 -13 10 -13 10 0 0 8 -5 22 -10 30
-9 13 -10 13 -10 0z"/>
<path d="M2685 6820 c-6 -9 1 -14 17 -12 3 1 9 -5 12 -14 3 -8 2 -12 -4 -9
-15 9 -12 -5 5 -21 13 -14 13 -17 -1 -31 -8 -9 -13 -22 -10 -30 3 -8 6 -23 6
-34 0 -11 12 -32 28 -46 15 -15 21 -23 15 -19 -8 4 -13 1 -13 -7 0 -8 9 -17
20 -20 25 -6 25 2 0 77 -11 33 -20 71 -20 86 0 54 -38 108 -55 80z"/>
<path d="M3225 6680 c3 -5 11 -10 16 -10 6 0 7 5 4 10 -3 6 -11 10 -16 10 -6
0 -7 -4 -4 -10z"/>
<path d="M3083 6636 c2 -6 -7 -30 -20 -53 -14 -24 -21 -43 -16 -43 4 0 28 10
53 23 41 20 45 26 42 54 -3 28 -7 32 -33 31 -17 -1 -28 -6 -26 -12z"/>
<path d="M2791 6524 c0 -11 3 -14 6 -6 3 7 2 16 -1 19 -3 4 -6 -2 -5 -13z"/>
<path d="M2827 6360 c6 -48 10 -57 19 -47 3 3 -1 25 -9 49 l-16 43 6 -45z"/>
<path d="M2645 6180 c4 -6 11 -8 16 -5 14 9 11 15 -7 15 -8 0 -12 -5 -9 -10z"/>
<path d="M1668 6078 c-21 -6 -38 -14 -38 -19 0 -11 -6 -12 60 11 57 20 43 25
-22 8z"/>
<path d="M6095 5889 c-4 -6 -5 -12 -2 -15 2 -3 7 2 10 11 7 17 1 20 -8 4z"/>
<path d="M6087 5833 c-4 -3 -7 -11 -7 -17 0 -6 5 -5 12 2 6 6 9 14 7 17 -3 3
-9 2 -12 -2z"/>
<path d="M6086 5781 c-10 -11 -16 -25 -15 -30 2 -6 12 3 21 19 20 35 18 38 -6
11z"/>
<path d="M6050 5770 c-6 -11 -8 -20 -6 -20 3 0 10 9 16 20 6 11 8 20 6 20 -3
0 -10 -9 -16 -20z"/>
<path d="M6046 5668 c-22 -43 -16 -44 12 -2 12 19 18 34 13 34 -5 0 -17 -14
-25 -32z"/>
<path d="M6056 5633 c-6 -14 -5 -15 5 -6 7 7 10 15 7 18 -3 3 -9 -2 -12 -12z"/>
<path d="M6034 5583 c1 -38 4 -40 22 -15 18 23 18 37 0 23 -11 -10 -15 -8 -19
6 -2 10 -4 3 -3 -14z"/>
<path d="M5880 6635 c-7 -9 -11 -18 -8 -20 3 -3 11 1 18 10 7 9 11 18 8 20 -3
3 -11 -1 -18 -10z"/>
<path d="M5896 6555 c-9 -26 -7 -32 5 -12 6 10 9 21 6 23 -2 3 -7 -2 -11 -11z"/>
<path d="M5453 6091 c-3 -12 -8 -21 -12 -21 -8 0 -131 -164 -131 -175 0 -4 19
17 42 47 44 56 59 70 67 62 3 -3 1 -8 -5 -12 -9 -6 -31 -38 -101 -142 -26 -38
-12 -23 60 67 45 56 64 88 61 101 -4 11 5 31 21 50 16 20 22 33 15 37 -7 4
-14 -2 -17 -14z"/>
<path d="M5265 5850 c-3 -5 -1 -10 4 -10 6 0 11 5 11 10 0 6 -2 10 -4 10 -3 0
-8 -4 -11 -10z"/>
<path d="M5340 5840 c-6 -11 -8 -20 -6 -20 3 0 10 9 16 20 6 11 8 20 6 20 -3
0 -10 -9 -16 -20z"/>
<path d="M5506 5809 c-26 -30 -38 -63 -13 -37 49 55 59 68 50 68 -6 0 -23 -14
-37 -31z"/>
<path d="M5812 5924 c-13 -20 -21 -38 -19 -40 4 -5 57 60 57 70 0 16 -17 2
-38 -30z"/>
<path d="M5730 5825 c-11 -13 -10 -14 4 -9 9 3 16 10 16 15 0 13 -6 11 -20 -6z"/>
<path d="M5692 5788 c-16 -16 -15 -28 3 -28 8 0 15 2 15 4 0 2 3 11 6 20 7 19
-7 21 -24 4z"/>
<path d="M1130 5839 c0 -5 5 -7 10 -4 6 3 10 8 10 11 0 2 -4 4 -10 4 -5 0 -10
-5 -10 -11z"/>
<path d="M1876 5864 c-3 -9 -6 -29 -6 -46 l0 -31 78 7 c102 10 168 24 182 41
20 25 -28 39 -141 42 -90 2 -108 0 -113 -13z"/>
<path d="M4397 5641 c-77 -16 -61 -36 47 -56 89 -17 282 -20 321 -5 35 13 27
32 -21 49 -45 15 -290 24 -347 12z"/>
<path d="M2570 5450 c0 -5 6 -10 13 -10 9 0 8 -3 -2 -9 -10 -6 -10 -10 -1 -16
16 -10 23 0 15 24 -6 21 -25 29 -25 11z"/>
<path d="M2677 5434 c-25 -13 -27 -18 -15 -32 28 -35 37 -42 43 -32 3 5 2 10
-4 10 -6 0 -8 7 -5 15 5 11 2 13 -10 9 -9 -3 -16 -1 -16 5 0 6 12 16 26 21 32
13 37 12 29 0 -3 -5 1 -10 11 -10 13 0 14 3 4 15 -15 19 -27 18 -63 -1z"/>
<path d="M2766 5365 c4 -8 8 -15 10 -15 2 0 4 7 4 15 0 8 -4 15 -10 15 -5 0
-7 -7 -4 -15z"/>
<path d="M2735 5340 c3 -5 13 -10 21 -10 8 0 12 5 9 10 -3 6 -13 10 -21 10 -8
0 -12 -4 -9 -10z"/>
<path d="M2780 5280 c-13 -8 -12 -10 3 -10 9 0 17 5 17 10 0 12 -1 12 -20 0z"/>
<path d="M3068 5123 c-10 -2 -18 -8 -18 -12 0 -12 25 -9 38 6 13 13 10 14 -20
6z"/>
<path d="M3092 5088 c2 -12 8 -23 15 -25 17 -6 12 35 -5 42 -9 3 -12 -2 -10
-17z"/>
<path d="M3158 5053 c7 -3 16 -2 19 1 4 3 -2 6 -13 5 -11 0 -14 -3 -6 -6z"/>
<path d="M3271 4924 c0 -11 3 -14 6 -6 3 7 2 16 -1 19 -3 4 -6 -2 -5 -13z"/>
<path d="M2408 4733 c7 -3 16 -2 19 1 4 3 -2 6 -13 5 -11 0 -14 -3 -6 -6z"/>
<path d="M2503 4503 c9 -2 25 -2 35 0 9 3 1 5 -18 5 -19 0 -27 -2 -17 -5z"/>
<path d="M2170 4479 c0 -5 5 -7 10 -4 6 3 10 8 10 11 0 2 -4 4 -10 4 -5 0 -10
-5 -10 -11z"/>
<path d="M2112 4451 c-9 -5 3 -10 34 -15 26 -3 50 -4 52 -1 3 3 -4 5 -16 5
-12 0 -22 5 -22 10 0 12 -30 13 -48 1z"/>
<path d="M2430 4450 c-24 -8 -23 -8 8 -9 17 -1 32 4 32 9 0 11 -5 11 -40 0z"/>
<path d="M2258 4443 c7 -3 16 -2 19 1 4 3 -2 6 -13 5 -11 0 -14 -3 -6 -6z"/>
<path d="M1516 4004 c-22 -21 -20 -75 3 -127 11 -23 27 -69 36 -102 20 -71 32
-60 40 36 2 35 7 81 11 102 5 32 2 43 -17 64 -37 38 -55 45 -73 27z"/>
<path d="M1773 3937 c-1 -7 -4 -27 -8 -44 -5 -20 -4 -33 2 -33 16 0 22 -192 9
-260 -9 -43 -35 -100 -47 -100 -5 0 -9 -13 -9 -30 0 -16 -5 -30 -11 -30 -6 0
-8 9 -4 20 3 11 3 20 -2 20 -5 0 -10 -14 -11 -32 -2 -17 -7 -37 -13 -45 -14
-16 -30 -85 -18 -77 8 5 13 -9 10 -28 0 -5 5 -8 13 -8 20 0 31 -19 17 -33 -20
-20 35 -38 82 -26 49 12 63 11 59 -3 -2 -6 4 -8 13 -5 21 9 19 -10 -2 -22 -17
-10 -17 -10 0 -11 15 0 16 -3 7 -20 -9 -16 -8 -20 5 -20 12 0 16 -8 15 -27 -3
-45 -1 -45 30 -10 29 34 40 77 20 77 -6 0 -8 -12 -5 -27 5 -23 4 -25 -5 -11
-7 12 -8 29 -2 51 11 38 4 97 -10 97 -6 0 -8 9 -5 20 3 13 0 20 -9 20 -11 0
-13 7 -7 28 3 15 6 34 6 43 -3 35 -54 264 -61 269 -4 3 -7 19 -6 35 0 17 -3
41 -7 55 -4 14 -13 58 -20 98 -11 66 -25 100 -26 69z"/>
<path d="M2677 3878 c-6 -4 0 -9 15 -13 17 -4 35 -2 47 7 19 14 18 14 -15 14
-20 -1 -41 -4 -47 -8z"/>
<path d="M2713 3804 c-1 -20 2 -33 5 -29 10 10 13 53 4 59 -4 2 -9 -11 -9 -30z"/>
<path d="M2845 3799 c-4 -12 -2 -26 5 -33 10 -8 12 -7 7 5 -3 9 -1 21 5 27 6
6 6 12 0 16 -6 3 -14 -3 -17 -15z"/>
<path d="M2885 3800 c-3 -4 2 -11 11 -14 22 -8 34 -7 34 3 0 12 -39 21 -45 11z"/>
<path d="M2680 3759 c0 -5 5 -7 10 -4 6 3 10 8 10 11 0 2 -4 4 -10 4 -5 0 -10
-5 -10 -11z"/>
<path d="M3570 3740 c0 -5 5 -10 10 -10 6 0 10 5 10 10 0 6 -4 10 -10 10 -5 0
-10 -4 -10 -10z"/>
<path d="M2745 3724 c-19 -14 -19 -14 5 -11 13 2 26 9 28 15 5 16 -9 14 -33
-4z"/>
<path d="M2920 3659 c0 -5 5 -7 10 -4 6 3 10 8 10 11 0 2 -4 4 -10 4 -5 0 -10
-5 -10 -11z"/>
<path d="M2800 3531 c-13 -25 -13 -41 1 -41 6 0 9 6 6 13 -2 6 2 20 11 30 9
10 11 17 4 17 -6 0 -16 -9 -22 -19z"/>
<path d="M3085 3540 c3 -5 8 -10 11 -10 2 0 4 5 4 10 0 6 -5 10 -11 10 -5 0
-7 -4 -4 -10z"/>
<path d="M2746 3518 c3 -5 9 -6 14 -3 4 3 11 -1 13 -7 4 -8 6 -7 6 4 1 11 -6
16 -18 15 -11 0 -17 -5 -15 -9z"/>
<path d="M2731 3493 c-1 -18 19 -27 32 -13 9 10 8 12 -5 7 -9 -3 -19 -1 -22 6
-3 9 -5 9 -5 0z"/>
<path d="M2710 3450 c0 -5 5 -10 10 -10 6 0 10 5 10 10 0 6 -4 10 -10 10 -5 0
-10 -4 -10 -10z"/>
<path d="M2791 3444 c0 -11 3 -14 6 -6 3 7 2 16 -1 19 -3 4 -6 -2 -5 -13z"/>
<path d="M2729 3413 c-5 -16 -12 -34 -14 -40 -6 -17 5 -16 29 2 15 11 17 18 9
26 -6 6 -9 18 -6 25 3 8 2 14 -1 14 -4 0 -11 -12 -17 -27z"/>
<path d="M2770 3353 c0 -14 -2 -15 -9 -4 -6 9 -10 3 -13 -22 -3 -31 -2 -34 15
-28 20 8 34 71 16 71 -5 0 -9 -8 -9 -17z"/>
<path d="M2680 3310 c0 -5 5 -10 11 -10 5 0 7 5 4 10 -3 6 -8 10 -11 10 -2 0
-4 -4 -4 -10z"/>
<path d="M2770 3268 c0 -19 2 -20 10 -8 13 19 13 30 0 30 -5 0 -10 -10 -10
-22z"/>
<path d="M2720 3230 c-9 -17 -9 -25 0 -34 9 -8 11 -7 8 4 -2 10 4 14 20 13 14
-2 22 3 22 13 0 9 -5 12 -11 8 -6 -3 -15 -1 -19 6 -6 9 -11 7 -20 -10z"/>
<path d="M3293 3170 c-33 -15 -43 -25 -43 -42 0 -29 26 -68 45 -68 8 0 19 -9
25 -20 6 -11 16 -18 22 -14 7 4 6 10 -3 16 -11 8 -10 9 4 4 21 -7 49 3 42 15
-7 11 32 32 45 24 6 -3 10 -2 10 2 0 5 16 15 35 22 52 18 47 45 -12 65 -60 21
-117 19 -170 -4z"/>
<path d="M2700 3171 c0 -7 -5 -9 -12 -5 -7 5 -8 3 -3 -5 5 -9 10 -10 18 -2 6
6 8 14 4 18 -4 3 -7 1 -7 -6z"/>
<path d="M2741 3164 c0 -11 3 -14 6 -6 3 7 2 16 -1 19 -3 4 -6 -2 -5 -13z"/>
<path d="M2707 3114 c6 -15 23 -19 23 -5 0 5 -7 11 -14 14 -10 4 -13 1 -9 -9z"/>
<path d="M3080 3119 c0 -5 5 -7 10 -4 6 3 10 8 10 11 0 2 -4 4 -10 4 -5 0 -10
-5 -10 -11z"/>
<path d="M1918 3108 c-16 -14 -32 -62 -17 -52 12 7 11 -9 -1 -24 -7 -9 -7 -9
2 -2 34 28 39 -12 6 -48 -13 -14 -17 -22 -10 -18 6 4 12 2 12 -3 0 -6 -4 -11
-8 -11 -5 0 -17 -7 -28 -15 -19 -15 -19 -15 1 -8 18 6 19 5 5 -12 -15 -19 -14
-19 13 -2 19 12 26 14 25 5 -2 -7 -7 -17 -13 -21 -6 -6 -6 -10 3 -14 13 -5 17
-33 5 -33 -5 0 -17 -12 -27 -27 -19 -26 -19 -26 2 -21 12 4 22 2 22 -3 0 -5
-6 -9 -12 -9 -9 0 -8 -4 2 -10 8 -5 11 -10 5 -10 -5 0 -3 -4 5 -10 11 -6 22
-1 42 23 28 33 36 57 18 57 -6 0 -3 14 6 31 8 17 11 28 5 25 -6 -4 -11 -4 -12
1 0 4 -2 22 -4 38 -3 17 -6 54 -9 83 -5 60 -12 74 -26 52 -8 -13 -10 -13 -10
-1 0 8 7 23 17 33 18 20 5 25 -19 6z m22 -288 c0 -5 -5 -10 -11 -10 -5 0 -7 5
-4 10 3 6 8 10 11 10 2 0 4 -4 4 -10z"/>
<path d="M2648 3063 c-24 -6 -23 -18 2 -20 11 -1 20 4 20 13 0 8 -1 13 -2 13
-2 -1 -11 -3 -20 -6z"/>
<path d="M2670 2990 c0 -5 5 -10 10 -10 6 0 10 5 10 10 0 6 -4 10 -10 10 -5 0
-10 -4 -10 -10z"/>
<path d="M2640 2969 c0 -5 5 -7 10 -4 6 3 10 8 10 11 0 2 -4 4 -10 4 -5 0 -10
-5 -10 -11z"/>
<path d="M3368 2953 c7 -3 16 -2 19 1 4 3 -2 6 -13 5 -11 0 -14 -3 -6 -6z"/>
<path d="M2600 2919 c0 -5 5 -7 10 -4 6 3 10 8 10 11 0 2 -4 4 -10 4 -5 0 -10
-5 -10 -11z"/>
<path d="M2600 2889 c0 -5 5 -7 10 -4 6 3 10 8 10 11 0 2 -4 4 -10 4 -5 0 -10
-5 -10 -11z"/>
<path d="M3213 2893 c9 -2 25 -2 35 0 9 3 1 5 -18 5 -19 0 -27 -2 -17 -5z"/>
<path d="M2915 2830 c-3 -5 -1 -10 4 -10 6 0 11 5 11 10 0 6 -2 10 -4 10 -3 0
-8 -4 -11 -10z"/>
<path d="M2595 2810 c-3 -5 -2 -10 4 -10 5 0 13 5 16 10 3 6 2 10 -4 10 -5 0
-13 -4 -16 -10z"/>
<path d="M3145 2790 c-4 -6 -13 -9 -21 -6 -7 3 -16 1 -19 -4 -8 -13 25 -13 45
0 8 5 12 12 8 15 -3 4 -9 1 -13 -5z"/>
<path d="M3065 2760 c-3 -6 1 -7 9 -4 18 7 21 14 7 14 -6 0 -13 -4 -16 -10z"/>
<path d="M3008 2730 c-34 -18 -58 -40 -43 -40 8 0 85 50 85 55 0 7 0 7 -42
-15z"/>
<path d="M2036 2515 c-11 -8 -17 -17 -14 -20 2 -3 13 4 23 15 21 23 18 25 -9
5z"/>
<path d="M2085 2522 c-5 -4 -17 -16 -25 -27 -11 -15 -7 -14 13 4 24 22 32 31
25 31 -2 0 -7 -4 -13 -8z"/>
<path d="M2149 2443 c-13 -16 -12 -17 4 -4 9 7 17 15 17 17 0 8 -8 3 -21 -13z"/>
<path d="M2117 2320 c-3 -11 -1 -20 4 -20 5 0 9 9 9 20 0 11 -2 20 -4 20 -2 0
-6 -9 -9 -20z"/>
<path d="M2230 2315 c-7 -8 -8 -15 -2 -15 5 0 15 7 22 15 7 8 8 15 2 15 -5 0
-15 -7 -22 -15z"/>
<path d="M2176 2311 c-4 -5 3 -7 14 -4 23 6 26 13 6 13 -8 0 -17 -4 -20 -9z"/>
<path d="M2223 2243 c-24 -23 -43 -45 -43 -49 0 -8 73 55 83 73 16 26 2 18
-40 -24z"/>
<path d="M2184 2245 c-16 -12 -17 -14 -3 -15 9 0 19 7 23 15 7 19 5 19 -20 0z"/>
<path d="M2348 2246 c-10 -7 -18 -17 -18 -22 0 -13 -59 -74 -72 -74 -6 0 -9
-2 -6 -5 7 -7 58 16 58 26 0 4 6 14 13 21 49 54 59 68 51 68 -5 0 -17 -7 -26
-14z"/>
<path d="M2117 2212 c-29 -30 -33 -42 -17 -42 6 0 10 7 10 15 0 8 4 15 10 15
5 0 14 9 20 20 15 27 9 25 -23 -8z"/>
<path d="M2076 2215 c-11 -8 -17 -17 -14 -20 2 -3 13 4 23 15 21 23 18 25 -9
5z"/>
<path d="M2279 2203 l-24 -28 28 24 c25 23 32 31 24 31 -2 0 -14 -12 -28 -27z"/>
<path d="M2384 2143 c-21 -26 -32 -43 -24 -38 8 5 23 19 33 32 10 13 22 21 26
19 4 -3 7 4 7 15 0 10 -1 19 -2 19 -1 0 -19 -21 -40 -47z"/>
<path d="M2223 2158 c-11 -13 -24 -30 -28 -38 -8 -16 -6 -14 34 33 14 15 22
27 19 27 -2 0 -14 -10 -25 -22z"/>
<path d="M2752 2120 c-7 -11 -8 -20 -3 -20 9 0 24 30 18 36 -1 2 -8 -6 -15
-16z"/>
<path d="M2373 2085 c-3 -9 -3 -18 -1 -21 3 -3 8 4 11 16 6 23 -1 27 -10 5z"/>
<path d="M2248 2053 c-19 -23 -31 -43 -24 -43 2 0 14 14 26 30 23 33 22 40 -2
13z"/>
<path d="M2420 2060 c-8 -5 -10 -10 -5 -10 6 0 17 5 25 10 8 5 11 10 5 10 -5
0 -17 -5 -25 -10z"/>
<path d="M2465 2036 c-6 -6 -24 -29 -40 -51 l-30 -39 27 19 c14 11 34 33 43
48 18 30 17 43 0 23z"/>
<path d="M2371 2014 c0 -11 3 -14 6 -6 3 7 2 16 -1 19 -3 4 -6 -2 -5 -13z"/>
<path d="M3571 2011 c-8 -5 -9 -11 -3 -15 5 -3 12 1 16 9 6 17 6 18 -13 6z"/>
<path d="M2214 1940 c-14 -24 -18 -43 -13 -52 7 -10 9 -9 9 5 0 10 7 32 16 48
23 45 12 44 -12 -1z"/>
<path d="M3526 1965 c4 -8 8 -15 10 -15 2 0 4 7 4 15 0 8 -4 15 -10 15 -5 0
-7 -7 -4 -15z"/>
<path d="M2435 1959 c-11 -16 -1 -19 13 -3 7 8 8 14 3 14 -5 0 -13 -5 -16 -11z"/>
<path d="M2516 1912 l-19 -27 26 24 c28 26 32 31 20 31 -5 0 -17 -13 -27 -28z"/>
<path d="M2235 1909 c-4 -6 -5 -12 -2 -15 2 -3 7 2 10 11 7 17 1 20 -8 4z"/>
<path d="M2479 1863 c-13 -16 -12 -17 4 -4 9 7 17 15 17 17 0 8 -8 3 -21 -13z"/>
<path d="M2200 1836 c0 -18 1 -19 20 -1 11 10 20 19 20 19 0 1 -9 2 -20 2 -13
0 -20 -7 -20 -20z"/>
<path d="M2449 1822 c-26 -30 -29 -39 -14 -39 8 0 19 13 24 29 12 33 11 34
-10 10z"/>
<path d="M2236 1795 c-9 -26 -7 -32 5 -12 6 10 9 21 6 23 -2 3 -7 -2 -11 -11z"/>
<path d="M3540 1769 c0 -5 5 -7 10 -4 6 3 10 8 10 11 0 2 -4 4 -10 4 -5 0 -10
-5 -10 -11z"/>
<path d="M2670 1709 c0 -5 5 -7 10 -4 6 3 10 8 10 11 0 2 -4 4 -10 4 -5 0 -10
-5 -10 -11z"/>
<path d="M3585 1690 c-3 -5 -1 -10 4 -10 6 0 11 5 11 10 0 6 -2 10 -4 10 -3 0
-8 -4 -11 -10z"/>
<path d="M2730 1619 c-28 -5 -30 -7 -10 -9 39 -3 86 1 117 10 23 7 20 9 -22 7
-27 -1 -66 -5 -85 -8z"/>
<path d="M2665 1610 c-3 -5 1 -10 9 -10 9 0 16 5 16 10 0 6 -4 10 -9 10 -6 0
-13 -4 -16 -10z"/>
<path d="M2473 1588 c-13 -17 -40 -76 -48 -108 -5 -19 -4 -22 4 -10 8 11 11
12 11 2 0 -7 5 -10 11 -6 8 5 10 -3 7 -25 -4 -27 -3 -29 11 -18 9 8 27 14 40
15 19 1 22 -3 19 -23 -4 -20 -1 -23 24 -23 15 1 28 4 28 8 0 4 25 19 55 35 30
15 55 29 55 30 0 2 -15 -1 -32 -6 -18 -5 -46 -9 -63 -10 -29 -1 -29 -1 -5 -8
l25 -7 -26 -6 c-41 -8 -30 20 17 42 l39 18 -35 -5 c-19 -2 -45 -6 -57 -8 l-22
-3 21 28 c12 17 26 26 35 23 12 -5 12 -7 1 -15 -11 -8 -10 -9 1 -6 8 2 18 15
23 27 7 21 6 22 -7 11 -9 -7 -18 -10 -21 -7 -4 3 -23 -6 -43 -21 l-36 -26 24
27 c14 15 19 27 13 27 -6 0 -14 -5 -17 -10 -4 -6 -11 -8 -16 -5 -5 4 -9 -1 -9
-9 0 -21 -21 -31 -31 -15 -5 8 -9 19 -9 24 0 6 4 4 9 -4 6 -9 11 -10 15 -2 4
6 4 11 0 11 -4 0 1 9 11 20 16 17 16 20 2 20 -8 0 -18 -6 -20 -12 -4 -9 -6 -8
-6 3 -1 8 4 20 11 27 7 7 9 12 6 12 -3 0 -10 -6 -15 -12z"/>
<path d="M2595 1569 c-23 -12 -29 -18 -15 -14 14 3 31 7 38 9 15 3 40 26 27
25 -6 0 -28 -10 -50 -20z"/>
<path d="M3111 1581 c-12 -8 -12 -12 -2 -25 8 -9 18 -16 23 -16 7 0 6 5 -1 13
-8 10 -7 17 1 25 14 14 -1 16 -21 3z"/>
<path d="M2665 1540 c-3 -6 1 -7 9 -4 18 7 21 14 7 14 -6 0 -13 -4 -16 -10z"/>
<path d="M3356 1529 c3 -5 12 -9 21 -9 19 0 9 13 -12 16 -8 1 -13 -2 -9 -7z"/>
<path d="M3365 1460 c-3 -5 -1 -10 4 -10 6 0 11 5 11 10 0 6 -2 10 -4 10 -3 0
-8 -4 -11 -10z"/>
<path d="M2685 1413 c-29 -6 -106 -45 -100 -51 2 -2 24 4 47 15 24 10 54 24
68 30 26 12 20 14 -15 6z"/>
<path d="M3131 1406 c-15 -8 -20 -16 -13 -20 12 -7 52 13 52 26 0 11 -11 9
-39 -6z"/>
<path d="M3264 1399 c-5 -9 -16 -18 -24 -21 -7 -2 -10 -7 -4 -10 13 -9 47 18
42 34 -3 9 -7 8 -14 -3z"/>
<path d="M3097 1359 c-4 -16 -3 -18 9 -8 16 13 19 29 5 29 -5 0 -11 -9 -14
-21z"/>
<path d="M2828 1303 c7 -3 16 -2 19 1 4 3 -2 6 -13 5 -11 0 -14 -3 -6 -6z"/>
<path d="M3060 1280 c-20 -6 -21 -8 -5 -8 11 0 29 3 40 8 25 11 -1 11 -35 0z"/>
<path d="M3325 640 c-3 -5 -1 -10 4 -10 6 0 11 5 11 10 0 6 -2 10 -4 10 -3 0
-8 -4 -11 -10z"/>
<path d="M3140 630 c-12 -8 -11 -10 8 -10 12 0 22 5 22 10 0 13 -11 13 -30 0z"/>
<path d="M3510 590 c-9 -6 -10 -10 -3 -10 6 0 15 5 18 10 8 12 4 12 -15 0z"/>
<path d="M3390 549 c0 -5 5 -7 10 -4 6 3 10 8 10 11 0 2 -4 4 -10 4 -5 0 -10
-5 -10 -11z"/>
<path d="M3500 500 c0 -5 5 -10 11 -10 5 0 7 5 4 10 -3 6 -8 10 -11 10 -2 0
-4 -4 -4 -10z"/>
<path d="M5594 4728 l-19 -23 25 20 c14 11 27 21 29 22 2 2 0 3 -6 3 -5 0 -18
-10 -29 -22z"/>
<path d="M5610 4676 c7 -7 13 -7 20 0 6 6 3 10 -10 10 -13 0 -16 -4 -10 -10z"/>
<path d="M5655 4600 c-4 -6 -11 -7 -17 -4 -7 4 -8 2 -4 -5 6 -9 12 -9 24 1 10
7 19 14 21 15 2 2 -1 3 -7 3 -6 0 -14 -5 -17 -10z"/>
<path d="M5466 4555 c-3 -9 -2 -13 4 -10 6 3 10 0 10 -7 0 -10 2 -10 9 1 7 11
10 11 15 0 3 -8 5 -6 3 6 -3 24 -32 32 -41 10z"/>
<path d="M5675 4559 c-4 -6 -5 -12 -2 -15 2 -3 7 2 10 11 7 17 1 20 -8 4z"/>
<path d="M5545 4530 c-3 -5 -1 -10 4 -10 6 0 11 5 11 10 0 6 -2 10 -4 10 -3 0
-8 -4 -11 -10z"/>
<path d="M5607 4509 c-4 -13 -10 -18 -18 -13 -8 4 -10 3 -5 -4 10 -16 36 -3
36 19 0 25 -6 24 -13 -2z"/>
<path d="M5470 4509 c0 -5 5 -7 10 -4 6 3 10 8 10 11 0 2 -4 4 -10 4 -5 0 -10
-5 -10 -11z"/>
<path d="M5642 4487 c-14 -15 -18 -24 -9 -24 7 0 18 11 24 24 6 13 10 23 9 23
-1 0 -12 -10 -24 -23z"/>
<path d="M5540 4487 c-8 -7 -22 -21 -30 -32 -14 -19 -14 -19 3 -6 20 15 23 2
5 -18 -11 -11 -10 -12 0 -6 10 5 12 -2 8 -32 -3 -21 -3 -31 0 -23 4 8 13 28
21 44 8 15 10 25 4 22 -17 -11 -8 37 9 51 8 7 11 12 5 12 -5 0 -17 -5 -25 -12z"/>
<path d="M5459 4473 c-13 -16 -12 -17 4 -4 16 13 21 21 13 21 -2 0 -10 -8 -17
-17z"/>
<path d="M5587 4438 c-21 -23 -16 -49 10 -47 17 1 17 2 1 6 -16 4 -16 6 -1 29
20 31 14 37 -10 12z"/>
<path d="M5477 4393 c-4 -3 -7 -11 -7 -17 0 -6 5 -5 12 2 6 6 9 14 7 17 -3 3
-9 2 -12 -2z"/>
<path d="M5544 4359 c-19 -22 -19 -22 4 -10 12 6 22 16 22 21 0 15 -5 12 -26
-11z"/>
<path d="M5475 4349 c-4 -6 -5 -12 -2 -15 2 -3 7 2 10 11 7 17 1 20 -8 4z"/>
<path d="M5776 4352 c-3 -5 1 -15 8 -21 11 -10 14 -9 12 3 -3 21 -13 29 -20
18z"/>
<path d="M5495 4330 c-3 -5 -1 -10 4 -10 6 0 11 5 11 10 0 6 -2 10 -4 10 -3 0
-8 -4 -11 -10z"/>
<path d="M5606 4325 c-11 -8 -17 -17 -14 -20 2 -3 13 4 23 15 21 23 18 25 -9
5z"/>
<path d="M5818 4219 c17 -18 15 -27 -5 -32 -14 -4 -12 -5 5 -6 27 -1 31 33 5
44 -15 5 -16 4 -5 -6z"/>
<path d="M5646 4195 c-11 -8 -15 -15 -9 -15 6 0 16 7 23 15 16 19 11 19 -14 0z"/>
<path d="M5846 4143 c-6 -14 -5 -15 5 -6 7 7 10 15 7 18 -3 3 -9 -2 -12 -12z"/>
<path d="M5567 4083 c-4 -3 -7 -11 -7 -17 0 -6 5 -5 12 2 6 6 9 14 7 17 -3 3
-9 2 -12 -2z"/>
<path d="M5790 4078 c0 -11 22 -10 39 1 10 7 7 9 -12 8 -15 -1 -27 -5 -27 -9z"/>
<path d="M5635 4060 c-3 -6 1 -7 9 -4 18 7 21 14 7 14 -6 0 -13 -4 -16 -10z"/>
<path d="M5820 4045 c-9 -11 -8 -14 9 -12 22 1 28 12 12 21 -5 3 -14 -1 -21
-9z"/>
<path d="M5587 4024 c-16 -9 -26 -18 -23 -21 3 -3 11 -1 18 5 7 6 17 10 23 10
5 0 11 5 13 11 5 14 3 14 -31 -5z"/>
<path d="M5801 3670 c-1 -8 -4 -26 -7 -40 -5 -19 -4 -22 5 -14 7 6 11 24 8 40
-2 16 -5 22 -6 14z"/>
<path d="M5631 3574 c0 -11 3 -14 6 -6 3 7 2 16 -1 19 -3 4 -6 -2 -5 -13z"/>
<path d="M5525 3371 c-3 -5 -1 -12 5 -16 5 -3 10 1 10 9 0 18 -6 21 -15 7z"/>
<path d="M5540 3330 c0 -5 5 -10 10 -10 6 0 10 5 10 10 0 6 -4 10 -10 10 -5 0
-10 -4 -10 -10z"/>
<path d="M5725 3190 c3 -5 8 -10 11 -10 2 0 4 5 4 10 0 6 -5 10 -11 10 -5 0
-7 -4 -4 -10z"/>
<path d="M5557 3143 c-10 -9 -9 -33 1 -33 4 0 8 9 8 20 0 23 0 22 -9 13z"/>
<path d="M5540 3091 c0 -5 5 -13 10 -16 6 -3 10 -2 10 4 0 5 -4 13 -10 16 -5
3 -10 2 -10 -4z"/>
<path d="M5577 3023 c-10 -9 -9 -33 1 -33 4 0 8 9 8 20 0 23 0 22 -9 13z"/>
<path d="M5627 3006 c-9 -7 -17 -18 -17 -25 0 -6 9 -2 21 10 24 24 22 33 -4
15z"/>
<path d="M5006 4213 c-6 -14 -5 -15 5 -6 7 7 10 15 7 18 -3 3 -9 -2 -12 -12z"/>
<path d="M6308 4203 c7 -3 16 -2 19 1 4 3 -2 6 -13 5 -11 0 -14 -3 -6 -6z"/>
<path d="M6290 4144 c0 -8 5 -12 10 -9 6 4 8 11 5 16 -9 14 -15 11 -15 -7z"/>
<path d="M5959 3094 c-17 -21 6 -37 32 -21 14 9 15 13 4 24 -17 17 -20 16 -36
-3z"/>
<path d="M5935 2920 c3 -5 10 -10 16 -10 5 0 9 5 9 10 0 6 -7 10 -16 10 -8 0
-12 -4 -9 -10z"/>
<path d="M5705 2670 c28 -12 37 -12 30 0 -3 6 -16 10 -28 9 -21 0 -21 -1 -2
-9z"/>
<path d="M2785 2580 c-3 -5 -1 -10 4 -10 6 0 11 5 11 10 0 6 -2 10 -4 10 -3 0
-8 -4 -11 -10z"/>
<path d="M2750 2545 c-10 -12 -10 -18 -2 -26 7 -5 10 -6 7 -3 -3 4 0 13 7 21
6 7 9 16 6 18 -3 3 -11 -2 -18 -10z"/>
<path d="M2709 2483 c-13 -16 -12 -17 4 -4 9 7 17 15 17 17 0 8 -8 3 -21 -13z"/>
<path d="M3131 2484 c0 -11 3 -14 6 -6 3 7 2 16 -1 19 -3 4 -6 -2 -5 -13z"/>
<path d="M3430 2533 c0 -13 5 -23 10 -23 13 0 13 11 0 30 -8 12 -10 11 -10 -7z"/>
<path d="M5656 2475 c-3 -8 -1 -15 3 -15 5 0 11 7 15 15 3 8 1 15 -3 15 -5 0
-11 -7 -15 -15z"/>
<path d="M5685 2410 c3 -5 11 -10 16 -10 6 0 7 5 4 10 -3 6 -11 10 -16 10 -6
0 -7 -4 -4 -10z"/>
<path d="M5650 2359 c0 -5 5 -7 10 -4 6 3 10 8 10 11 0 2 -4 4 -10 4 -5 0 -10
-5 -10 -11z"/>
<path d="M5660 2329 c0 -5 5 -7 10 -4 6 3 10 8 10 11 0 2 -4 4 -10 4 -5 0 -10
-5 -10 -11z"/>
<path d="M5621 2131 c-8 -15 -8 -22 1 -27 7 -4 10 -4 6 1 -4 4 -3 14 4 22 6 7
8 16 5 19 -3 3 -10 -3 -16 -15z"/>
<path d="M5702 2060 c0 -16 3 -32 7 -34 7 -5 6 52 -2 60 -2 2 -4 -9 -5 -26z"/>
<path d="M5520 1669 c0 -5 5 -7 10 -4 6 3 10 8 10 11 0 2 -4 4 -10 4 -5 0 -10
-5 -10 -11z"/>
<path d="M5507 1639 c7 -7 15 -10 18 -7 3 3 -2 9 -12 12 -14 6 -15 5 -6 -5z"/>
<path d="M5496 1595 c4 -8 8 -15 10 -15 2 0 4 7 4 15 0 8 -4 15 -10 15 -5 0
-7 -7 -4 -15z"/>
<path d="M5455 1580 c-16 -4 -28 -9 -25 -10 22 -8 41 -6 51 6 6 8 10 13 8 13
-2 -1 -17 -5 -34 -9z"/>
<path d="M5450 1539 c0 -5 5 -7 10 -4 6 3 10 8 10 11 0 2 -4 4 -10 4 -5 0 -10
-5 -10 -11z"/>
<path d="M5498 1523 c7 -3 16 -2 19 1 4 3 -2 6 -13 5 -11 0 -14 -3 -6 -6z"/>
<path d="M5459 1496 c11 -12 51 -29 51 -21 0 2 -14 10 -31 19 -23 12 -28 12
-20 2z"/>
<path d="M5405 1480 c3 -5 8 -10 11 -10 2 0 4 5 4 10 0 6 -5 10 -11 10 -5 0
-7 -4 -4 -10z"/>
<path d="M5376 1454 c-5 -12 -2 -15 10 -10 8 3 18 6 20 6 3 0 2 5 -1 10 -9 15
-22 12 -29 -6z"/>
<path d="M5460 1456 c0 -8 4 -17 9 -20 5 -4 7 3 4 14 -6 23 -13 26 -13 6z"/>
<path d="M5412 1445 c-7 -8 -17 -26 -22 -41 -9 -21 -8 -25 4 -21 8 3 17 1 20
-6 2 -7 5 -5 5 5 1 9 -5 19 -11 21 -10 4 -10 6 0 6 7 1 10 6 7 11 -9 14 18 12
34 -2 8 -7 6 -1 -4 15 -9 15 -18 27 -19 27 0 -1 -7 -7 -14 -15z"/>
<path d="M5376 1361 c-3 -4 1 -17 8 -27 13 -17 14 -17 9 9 -6 29 -9 32 -17 18z"/>
<path d="M5570 2030 c0 -5 5 -10 11 -10 5 0 7 5 4 10 -3 6 -8 10 -11 10 -2 0
-4 -4 -4 -10z"/>
<path d="M5265 1321 c-3 -5 -1 -12 5 -16 5 -3 10 1 10 9 0 18 -6 21 -15 7z"/>
<path d="M3174 1178 c-4 -7 -3 -8 4 -4 7 4 12 2 12 -4 0 -6 5 -8 10 -5 6 3 10
10 10 16 0 13 -27 11 -36 -3z"/>
</g>
</svg>
